<svg xmlns="http://www.w3.org/2000/svg" fill="#000" viewBox="0 0 786 868">
  <path d="M635 400h-7a407 407 0 0 1-30-3l17-1h4l2-1c38-5 53-22 59-32a379 379 0 0 0 6-2 216 216 0 0 0 48-29 217 217 0 0 0 26-27 239 239 0 0 1-13 13l-14 13-7 6a121 121 0 0 1-7 5c-11 7-22 12-33 17l-5 2 3-9c-1-2-3-3-9-3l-8 1 2-1c18-9 48-24 73-48 21-19 34-29 39-29l2 1c3 4-4 20-7 28-7 16-46 95-141 99Zm104-30c17-10 24-12 27-12l2 1c1 1 0 7-16 26a153 153 0 0 1-123 52l-25-5h-3l-3-1-7-2a217 217 0 0 0-7-3 118 118 0 0 1-10-4 130 130 0 0 0 7 2 100 100 0 0 0 71-7l12-1a211 211 0 0 0 16-4l17-4a139 139 0 0 0 30-16c9-6 18-13 26-21a146 146 0 0 1-27 20 149 149 0 0 1-63 23l-9 2c4-2 7-5 8-7 1-1 2-2 1-4-1-3-4-5-9-5 20-3 52-10 85-30Zm-82 70c16 0 31-1 47-4l18-2c5 0 8 1 9 3 0 3-6 9-23 17-25 13-50 19-73 19-21 0-40-5-58-14a228 228 0 0 0-4-3l-22-15a86 86 0 0 0 48 14l17-2a178 178 0 0 0 41 4 154 154 0 0 0 29-5l27-10a166 166 0 0 1-14 5 183 183 0 0 1-14 3 165 165 0 0 1-67 3c8-3 13-6 13-8 0-3-3-5-9-7h-1l8 1a235 235 0 0 0 28 1Zm3 43c16 1 17 4 17 5 0 3-16 11-39 13l-18 1c-32 0-59-9-79-26l-9-12a207 207 0 0 1-6-9 67 67 0 0 0 46 21 160 160 0 0 0 8 3 140 140 0 0 0 26 8 220 220 0 0 0 41 3 334 334 0 0 1-14-1 247 247 0 0 1-53-11l-6-2c5-1 16-1 16-5 1-1 0-2-1-3 18 8 41 14 71 15Zm-38 29c12 2 12 4 12 5 0 3-17 8-39 8a132 132 0 0 1-64-18 203 203 0 0 0-3-20l8 2a137 137 0 0 0 5 5 113 113 0 0 0 50 21c9 2 18 3 27 1h-13a116 116 0 0 1-27-5 113 113 0 0 1-36-18 120 120 0 0 1-4-3h3l4-2c1-1 1-3-1-7 17 14 42 26 78 31Zm-64 19c13 6 13 9 13 10s-3 2-9 2c-8 0-19-2-30-5a209 209 0 0 0 0-11l6 3a141 141 0 0 0 9 3l9 3-9-3a154 154 0 0 1-9-4 202 202 0 0 1-6-4v-11c7 6 16 12 26 17Zm-29 45c19-4 40-8 59-10v-1a52 52 0 0 0-1 3c-5 8-8 17-8 18a97 97 0 0 1 12-21l5-1h1a62 62 0 0 0-3 5l-3 7 1-3 7-9c16-2 33-4 46-4-3 4-8 17-8 18l3-5 7-14a353 353 0 0 1 9 0l-9 15 3-4 8-11h20l-2 1c-4 3-9 8-11 12l4-4a63 63 0 0 1 5-4c3-2 6-4 9-4l2-1c18 2 29 5 30 11 1 2-1 7-8 14a18 18 0 0 1-2 2l-8 3h-11c2 0 10 2 15 1l-2 1c-3 1-22 2-33-1l13 3a89 89 0 0 0 17 1l-2 1-19 11c-16-3-27-7-33-10a50 50 0 0 1-2-1l-3-2c1 1 9 9 27 18l-6 2-8-2-10-5-17-13c5 5 10 10 17 14a84 84 0 0 0 9 6 77 77 0 0 0 6 2l-39 13-27 10c-16-5-30-15-37-21l-2-1-3-3a83 83 0 0 0 5 5c13 12 30 20 33 21h-1l-6 3a134 134 0 0 1-12-5c-8-4-15-9-20-13l-9-8c2 5 12 12 20 17l18 10h-1l-17 7a180 180 0 0 1-38-20l-9-7a183 183 0 0 0 5-10 1575 1575 0 0 1 137-30l44-8-44 6-6 1-9 1-5 1h1a1579 1579 0 0 0-115 22 194 194 0 0 0 9-30h2Zm24 76-37 16-1 1h-1a5817 5817 0 0 1-18 8l-18-12c13-11 24-26 32-42 5 6 13 11 20 16a197 197 0 0 0 23 13Zm-20 22c6 2 13 6 17 12 2 3 4 6 7 7 4 6 2 13 2 13v2l1-1a30 30 0 0 0 11-14l5 3c1 6-1 11-1 11l-1 2 2-1s7-3 11-9l1-3a28 28 0 0 0 3 2c1 5-2 9-2 9l-1 3 2-1c1 0 6-2 9-7l2-3c2-1 4-4 4-8l32 6c-11 1-29 6-37 29-4 13-3 25 2 34-27-17-72-36-123-54l-4-1-4-2-6-2h-2l-10-4c22-8 43-18 63-27l17 4Zm27 20a20 20 0 0 0-1-1 12 12 0 0 0 0-1h-1c-2-4-2-7-1-9a5 5 0 0 1 1-2l1-1a7 7 0 0 1 1 0l1-1h1l2 1a7 7 0 0 1 3 2 12 12 0 0 1 2 8v1a13 13 0 0 1 0 2v1l-8 10-1-10Zm-7-30c4 0 9 2 13 6a15 15 0 0 1 1 1 24 24 0 0 1 4 10v5a14 14 0 0 0-2-3v-2h-1c-2-3-5-4-7-3h-1a11 11 0 0 0-2 1l-1 1a6 6 0 0 0-2 2c-1 2-1 5 1 8l-5-5c-2-4-6-7-10-9a57 57 0 0 0-3-2 65 65 0 0 0-5-2 81 81 0 0 0-4-1l24-7Zm25 33-1-1v-11h1l1-1h5l1 1 1 1a11 11 0 0 1 1 9h-1a15 15 0 0 1 0 2l-1 1v1l-8 7 1-9Zm-6-28c3 0 7 1 10 4h1v1c2 2 4 4 5 8a22 22 0 0 1 1 3v6a12 12 0 0 0-1-4 10 10 0 0 0-1-1v-1l-6-3-3 1a7 7 0 0 0-1 1h-1v1h-1v9l-4-3v-1a13 13 0 0 0 2-7h-1v-1l-1-5-3-7 4-1Zm21 29a14 14 0 0 0 0-1c-1-3 0-5 1-6l3-1h1l2 1v7l-1 1-1 1v1l-6 5a17 17 0 0 0 1-8Zm-6-26h1c5 0 11 4 14 12a20 20 0 0 1 1 6l-1 5-1-4a4 4 0 0 0 0-1 5 5 0 0 0-1-1 4 4 0 0 0-2-1 8 8 0 0 0-2 0 7 7 0 0 0-2 0 5 5 0 0 0-2 2l-1 6a25 25 0 0 1-2-1l2-7v-1a21 21 0 0 0 0-1 23 23 0 0 0-1-5l-5-8 2-1Zm37 68c3 1 5 2 7 1 5-2 7-7 7-8l-18-5c1-5 4-8 7-10h7l1 1 4 2 1 1c6 6 8 16 4 26-4 12-13 21-22 21h-1l-9-3a163 163 0 0 0-5-3 24 24 0 0 1-3-3c-5-8-6-18-4-29l24 9Zm-4-11 16 5-5 5h-6l-1-1c-3-2-4-5-4-8v-1Zm-2 0 2 8-19-8a64 64 0 0 1 1-3c2-7 5-12 9-16l17 6-1 1c-5 2-8 7-9 12Zm26-30c5 2 13 6 18 14 5 10 5 23-1 39-14 35-40 40-55 40h-7c-2-2-37-25-90-50l-1-1h-2a868 868 0 0 0-35-16l-2-1h-2l-3-2h-1l-1-1-7-2-1-1h-1l-3-1-1-1h-2a784 784 0 0 0-11-5h-2a71 71 0 0 0-2-1h-1l-1-1a5576 5576 0 0 1-5-1l5-2h2v-1h2a723 723 0 0 0 11-5h2l4-2a1879 1879 0 0 1 14 5 1602 1602 0 0 1 13 5h3l1 1c53 19 98 38 124 55l3 2h-1a25 25 0 0 0 3 2l10 2h1c9 0 20-9 24-21 4-11 2-22-6-29l-4-3-2-1-22-7c13-12 30-10 32-10Zm-124 63c7 18-4 29-14 35 3-6 4-14 0-24-5-12-22-32-33-45a865 865 0 0 1 35 16c5 6 10 13 12 18Zm-15 34-1 1v1c-3 6-9 11-15 14a178 178 0 0 1-2-3c5-10 4-22-3-36l-2-3a122 122 0 0 0-5-9l-1-1-4-8-16-31 6 2 1 1h1l6 2c11 14 29 35 34 48 4 9 3 16 1 22Zm-20 12a18 18 0 0 1 0 1c-3 5-7 10-13 14-13 10-22 13-24 14l-5-5c19-15 29-26 24-44a45 45 0 0 0 0-2 49 49 0 0 0 0-2l-6-13-1-2-1-2-1-1c-9-15-17-39-22-52l12 4h1l1 1 4 1c6 14 14 31 21 42 13 19 16 34 10 46Zm-43 23v1h-1l-23 17a71 71 0 0 1-5-6l6-5c7-6 12-13 14-21v-1a37 37 0 0 0 1-3 45 45 0 0 0 1-10 49 49 0 0 0 0-2c0-13-5-25-8-35l-3-6c-4-12-8-33-10-48l9-3 2 8 1 4 1 4 3 8a1367 1367 0 0 0 4 15l2 4 1 4 2 8 6 16 3 15c1 6 1 11-1 17-1 5-4 10-8 13 4-3 7-8 9-13l1-17-4-16-5-15a1074 1074 0 0 1-4-13l-1-5-2-5-2-8-2-8-1-4-1-4-2-7 5 1h1l1 1 2 1c5 14 13 38 22 54a127 127 0 0 1 3 5 72 72 0 0 1 2 2 75 75 0 0 1 4 11c6 19-3 30-23 46Zm-31 12h-1c-9 9-15 18-17 21-2-3-8-12-18-21l-1-1a124 124 0 0 0-6-5 43 43 0 0 1-16-32c0-13 4-27 9-38l2-6 8-37 8-2h1l9-2 4 119 4-122 8-2 1-1a570 570 0 0 0 7-2c1 16 6 36 10 49l2 6c4 11 9 25 8 38a46 46 0 0 1-1 8c-1 9-6 17-15 24a123 123 0 0 0-5 5l-1 1Zm-44 6-22-17h-1v-1h-1c-19-16-28-27-22-46v-2a75 75 0 0 1 5-11 129 129 0 0 1 3-5c6-10 12-24 16-36l7-2h2l2-1-4 13-1 5-2 5a1186 1186 0 0 1-6 21c-3 9-6 18-6 28 0 4 0 9 2 14 1 4 3 8 7 11-3-3-6-7-7-11-2-5-2-10-2-14 1-10 3-19 6-28a1151 1151 0 0 0 6-16l1-4 1-4a1161 1161 0 0 0 6-20 444 444 0 0 0 13-3 246 246 0 0 1-11 41 116 116 0 0 0-8 40 48 48 0 0 0 1 10l1 1c2 8 6 15 14 21a103 103 0 0 1 6 5 71 71 0 0 1-6 6Zm-30-12c-2-1-11-4-23-14-6-4-10-9-13-14l-1-1c-6-12-2-27 10-46 5-8 11-18 15-28l5-1h2l11-2c-4 12-10 25-15 35l-1 1a91 91 0 0 0-8 17 39 39 0 0 0 0 2l-1 2c-4 18 6 29 24 44l-5 5Zm-41-25c-5-3-11-8-14-14l-1-1v-1c-3-6-3-13 0-22 4-9 15-24 25-36l1-1 1-1 1-1 14-1c-4 10-10 20-14 27a169 169 0 0 0-2 3l-5 9c-7 14-8 26-3 36a162 162 0 0 1-3 3Zm-30-50c3-7 11-18 18-27a160 160 0 0 0 21 0h1v1c-10 12-22 27-26 37s-3 18-1 24c-10-6-20-17-13-35Zm129-44-2 90-3-89 5-1Zm-157 2a1158 1158 0 0 1 34-18 1299 1299 0 0 1 48-21l1-1 1-1h2a120 120 0 0 0 147-7l12 11-32 13-1 1h-2l-2 1-1 1h-1a618 618 0 0 1-11 4h-1v1h-2l-3 1-2 1-2 1h-1l-2 1-6 2h-2l-6 2-1 1a1057 1057 0 0 1-9 3h-1a558 558 0 0 1-5 1 20 20 0 0 1-1 1l-8 2h-1l-1 1-7 2h-2a300 300 0 0 1-6 2 95 95 0 0 1-5-3l-1-1-3-1-1-1h-1l-1-1-2-1-1-1h-1a153 153 0 0 1-8-6v-1h-1l-1-1h-1v-1h-1v-1c-7-5-13-11-19-18l18 19v1h1l1 1 1 1 1 1h1l8 7h1v1a293 293 0 0 0 4 2l1 1h1l2 2 1 1 2 1h-4l-2 1h-2l-2 1-3-2h-1l-1-1a251 251 0 0 1-7-5l-1-1-1-1h-1l-2-2-1-1-3-2v-1h-1l-2-2-6-5a28 28 0 0 0-1-1 42 42 0 0 0-1-1l-1-1a24 24 0 0 1-1-1v-1a219 219 0 0 1-5-5l4 6a88 88 0 0 1 3 3l1 1 1 1 5 5 2 2 1 1 3 3h1l1 1 2 2h1v1h1a204 204 0 0 0 8 6v1h1l1 1h-3l-12 2h-2l-4 1h-2l-11 1-2-1h-1l-1-1h-1a107 107 0 0 1-13-8l-1-1-1-1c-6-4-12-9-16-15 4 6 9 11 15 16l1 1h1v1a110 110 0 0 0 13 9h1v1h-3a161 161 0 0 1-19-1h-2c-16-2-31-6-46-13Zm-2-1h-1l-1 1h-2l-1-2a33 33 0 0 1-1-2v-1h-1a23 23 0 0 1 0-2 18 18 0 0 1-1-5 38 38 0 0 1 1 0h1a1201 1201 0 0 1 36-17l34-15h2l1-1 10-4a141 141 0 0 0 9 7l-2 1h-2l-1 1a1283 1283 0 0 0-46 21 1153 1153 0 0 0-35 18Zm-17 9-1-1s-4-3-5-9l2-3 2-1c5 5 12 7 14 7l-12 7Zm-7 3-6 4-1-1s-4-2-5-7a29 29 0 0 0 2-3l2 1c4 3 10 4 12 4l-4 2Zm-29 17a701 701 0 0 0-14 9c-3 2-9 3-15 3l-14-2a399 399 0 0 1 3-2l18-12a672 672 0 0 1 15-9l11-6 4 3a14 14 0 0 0 3 2c4 2 8 2 10 2a830 830 0 0 0-21 12Zm19-14-7-2h-1a9 9 0 0 1-1-1 11 11 0 0 1-1-1 11 11 0 0 1-2-2 7 7 0 0 1 0-1 14 14 0 0 1-1-1v-2l1-2 3-1 3 2a10 10 0 0 1 2 3v2l4 6Zm-18-15c-2-10 4-16 8-18h2v10a18 18 0 0 0 5 11h1v1l-1 2-1-2-1-1c-1-2-2-3-4-3l-4 1-2 4 1 3v2a8 8 0 0 1 0-1 25 25 0 0 1-1-1c-1-1-3-4-3-8Zm32 8c-3 0-7-1-10-3h-1l-1-1a13 13 0 0 1-1-1l-1-1-1-1-2-6 3-5h5l3 6 1 1v1a16 16 0 0 0 0 3c1 3 3 6 5 7Zm-20-26v-1h1c2-5 5-7 7-8l2-1 2 1a23 23 0 0 0 3 14l3 4v1a17 17 0 0 1-1 3v1h-1v-1l-3-6a4 4 0 0 0-1 0 6 6 0 0 0-1-1 6 6 0 0 0-2 0l-4 1c-2 1-3 3-3 5v6l-3-9 1-9Zm30 8a21 21 0 0 0 1 6 19 19 0 0 0 2 4l-11-6v-1h-1a13 13 0 0 1-1-1v-2l-1-1v-7c0-3 2-4 3-4a9 9 0 0 1 2-1 6 6 0 0 1 2 1h1l1 1c2 2 3 5 2 8v1a8 8 0 0 0 0 1v1Zm-16-17v-2c2-5 6-9 9-10h2c4 0 10 3 12 4 0 2-3 8-3 13l-2 7-2-7a6 6 0 0 0-1-1l-5-1h-2c-2 0-4 2-5 5v6c-2-1-3-4-3-7v-7Zm25-6v-2l1-1a94 94 0 0 1 10-19l1-1a96 96 0 0 1 12-14l1-1v2l1 16v2l3 8v-9a69 69 0 0 1 3-15l2-8 1-1v-1l1-3 10-6c9 14 19 26 31 37a1388 1388 0 0 0-12 4l-1 1-2 1a1229 1229 0 0 0-31 13 1188 1188 0 0 0-36 17v-2l2-7v-3a97 97 0 0 1 3-8Zm28-14v-1a43 43 0 0 1-1-3h1v4Zm-127-31c-2-2-28-22-25-63 3-35 21-43 34-43 9 0 16 3 16 3l4 2c6 4 15 12 17 26l-20-7-9-2c-11 1-19 9-22 21s0 26 8 31c3 3 7 4 11 4l3 1c19 4 62 15 115 30l-2 8-3 14h-1l-1-16v-3l1-2-2 1a119 119 0 0 0-3 3l-12 13-109-21Zm28-66-16-5v-1h-1s-2 7 1 11c1 2 4 3 7 3l24 5c-4 12-11 19-19 22-3 1-7 2-10 1l-6-1-4-2c-7-5-10-18-7-30 3-10 10-17 19-19h1c5 0 9 1 11 4s2 8 0 12Zm-8 7a15 15 0 0 1-1-1h-2l-4-2-1-7 16 4v1c-2 3-5 5-8 5Zm9-5c3-4 3-11 0-15l17 6a43 43 0 0 1-2 19l-20-4c2-1 4-3 5-6Zm97 12c4 15 11 30 18 43l-9 6h-1a53 53 0 0 0-1 4 4913 4913 0 0 0-109-30c10-4 18-13 22-27 6-19-2-32-9-40 16 9 47 26 89 44Zm-39-46c-6 0-8-1-8-2s0-4 12-10c11-5 19-11 27-17a208 208 0 0 0-1 11 207 207 0 0 1-6 4l-8 4-9 3 9-3a138 138 0 0 0 9-3 113 113 0 0 0 5-3 214 214 0 0 0 0 11c-10 3-21 5-30 5Zm-12-20a132 132 0 0 1-48-1c-7-2-11-4-11-5s0-3 12-5c36-5 61-17 78-31-2 4-3 6-2 7s2 2 5 2h3a118 118 0 0 1-5 3 119 119 0 0 1-76 23c9 2 19 1 28-1a126 126 0 0 0 26-7c8-4 16-8 23-14a135 135 0 0 0 6-5l8-2a203 203 0 0 0-3 20c-12 8-27 14-44 16Zm-45-21-19-1c-22-2-39-10-39-13 1-1 1-4 18-5 30-1 53-7 70-15l-1 3c1 4 12 4 16 5a182 182 0 0 1-6 2l-26 8a247 247 0 0 1-40 5 310 310 0 0 0 41-4 140 140 0 0 0 26-8 160 160 0 0 0 8-3 42 42 0 0 0 12-2c7-2 21-6 33-19a207 207 0 0 1-6 9l-9 12c-19 17-46 26-78 26Zm-15-29c-24 0-49-6-74-19-16-8-23-14-22-17 0-2 4-3 9-3l18 2a247 247 0 0 0 83 2h-2c-6 2-9 4-9 7 0 2 5 5 14 8a177 177 0 0 1-68-3 183 183 0 0 1-14-3 166 166 0 0 1-13-5 150 150 0 0 0 85 13 178 178 0 0 0 12-2 76 76 0 0 0 28 1 91 91 0 0 0 12-3c10-3 18-6 24-10a168 168 0 0 1-26 18c-18 9-37 14-57 14ZM34 385c-17-19-18-25-17-26l2-1c3 0 11 2 27 12 33 20 66 27 85 30-5 0-8 2-9 5l1 4 8 7a232 232 0 0 1-9-2c-11-2-22-4-32-8a149 149 0 0 1-57-35c7 8 16 15 26 21a139 139 0 0 0 30 16l16 4a210 210 0 0 0 17 4l12 1a93 93 0 0 0 71 7 116 116 0 0 0 6-2 119 119 0 0 1-9 4 192 192 0 0 0-15 5l-2 1h-4a205 205 0 0 1-34 5c-43 0-87-20-113-52Zm-24-84c-3-8-10-24-8-28l2-1c6 0 19 10 40 29 25 24 55 39 73 48l2 1-9-1c-5 0-7 1-8 3-1 1 0 5 3 9l-5-2a232 232 0 0 1-41-22l-7-6a288 288 0 0 1-14-12 217 217 0 0 0 20 19 113 113 0 0 0 8 5 216 216 0 0 0 40 20c5 10 21 27 59 32l2 1h3a187 187 0 0 0 28 0l-30 4a407 407 0 0 1-11 0h-6c-95-4-134-83-141-99Zm4-89c-2-13-1-21 1-24l2-1c6 0 16 11 32 34 23 32 48 57 59 66h-7c-2 2-2 7-1 13l2 9a226 226 0 0 1-10-8 225 225 0 0 1-50-61 238 238 0 0 1-14-26 152 152 0 0 0 4 9 233 233 0 0 0 32 50c8 11 17 20 28 29a237 237 0 0 0 10 8c5 13 16 31 42 44l2 1 2 1c8 4 16 6 24 8-10-2-22-4-32-8h-2l-2-1a164 164 0 0 0-9-3 198 198 0 0 1-10-5c-54-28-95-81-103-135Zm36-39c-3-25-1-44 3-49l2-1c2 0 6 2 12 17 19 49 39 79 55 97-2 8-2 22 0 32a241 241 0 0 1-5-6c-10-12-19-24-26-37a357 357 0 0 1-30-74 229 229 0 0 0 2 11 360 360 0 0 0 26 64 231 231 0 0 0 34 44c2 5 5 15 13 26v1l1 1 8 10c4 4 12 9 21 14-14-6-28-13-39-22a90 90 0 0 0-3-3 155 155 0 0 0-3-3l-3-2-2-2-1-1c-22-19-60-56-65-117Zm73 66 1-1v-1l1-4a145 145 0 0 1 27 31 105 105 0 0 0 6 6l11 10a165 165 0 0 0 13 10v3a73 73 0 0 0 2 17l-1-1a79 79 0 0 1-39-31l-6-9 5 10a86 86 0 0 0 6 8c4 5 9 10 15 14l18 10h2l1 2v2c3 8 7 13 11 16l1 1h1l1 1h-2v-1h-1c-20-5-42-16-49-24l-7-8-1-1-1-1-12-24a89 89 0 0 1-1-3 80 80 0 0 1-1-3c-3-10-2-22-1-29Zm60 52 1-1v-1l1-13c6 9 16 16 26 23 10 6 21 13 27 23 9 12 9 21 8 33-1 9-2 20 4 34a32 32 0 0 0 22 18 49 49 0 0 0 20 1 64 64 0 0 0 4 0c-10 11-18 25-25 40l-1-1v-2a12 12 0 0 1 1-7v-2l1-1 1-2a1 1 0 0 0-1 0v-1h-1l-1 1-1 2c-1 4-2 12-18 12h-4a13 13 0 0 0 0-1l-2-7v-2a16 16 0 0 1 1-4 11 11 0 0 1 1-3l1-1 3-3 3-2-1-2h-2l-1 1-1 1a33 33 0 0 1-3 5c-3 3-8 5-16 5h-6a14 14 0 0 0-1 0l-2-1c-1-4 0-7 1-10v-1l1-1c3-6 8-8 11-9l2-1 2-2v-1l-2-1-2 1-1 1-2 1a29 29 0 0 1-3 2l-1 1a21 21 0 0 1-4 2h-1a24 24 0 0 1-6 1c-4 0-9-1-15-4a69 69 0 0 1-2-1h1l5-10v-1l1-1a24 24 0 0 1 7-5c3-2 7-3 10-3l4-2a2 2 0 0 0 0-1 2 2 0 0 0 0-1 2 2 0 0 0-1 0h-1a8 8 0 0 0-1 0 17 17 0 0 0-3 1l-6 3-8 1c-5 0-9-1-13-3l-1-1h-1l-8-6-1-1h1a46 46 0 0 1 4-5l1-1 1-1a33 33 0 0 1 15-7 34 34 0 0 1 2-1h9l5-1v-1a4 4 0 0 0 0-1v-1h-1l-5 1-13 2c-7 0-13-3-18-8h-1l-1-1-6-9v-1l1-1c7-6 14-10 22-10h1l4 1h2l9 3 4 1h1l1-1v-1a2 2 0 0 0 0-1h-2a5 5 0 0 0 0-1 6 6 0 0 0-1 0h-3l-8-1-9-4-1-1v-1a31 31 0 0 1-10-14 68 68 0 0 1 0-1l-1-2a24 24 0 0 1 0-1l-2-10a73 73 0 0 1 0-6l-1-2v-2Zm128 101-1 1h-1l-1 1a48 48 0 0 1-7 1 55 55 0 0 1-17 0 37 37 0 0 0 15-7 49 49 0 0 0 20-30l1-4 1-2a41 41 0 0 0 3-6l3-9a105 105 0 0 0 2-11l1 2 1 3a90 90 0 0 1-6 35 49 49 0 0 1-5 8 66 66 0 0 1-3 4l-1 1-1 2-7 6-8 4 8-4a51 51 0 0 0 6-5l1-1 1-1 1-1 4-5a49 49 0 0 0 5-8 70 70 0 0 0 7-32 64 64 0 0 1 1 7l1 5 1-5 1-16v-7a39 39 0 0 0 4 7c2 9 2 18 1 27s-5 18-11 26l-20 14Zm-4-28a57 57 0 0 1-8 4l2-2a42 42 0 0 0 6-7 49 49 0 0 0 2-5 52 52 0 0 0 5-23l-1-10a72 72 0 0 0-3-10l1-1 2-2a37 37 0 0 0 2-3 83 83 0 0 1 1 7l2 15a83 83 0 0 1 0 4 67 67 0 0 1 0 4 61 61 0 0 1 0 3 61 61 0 0 1-1 3l-2 7c-1 2-2 5-4 6 2-1 3-4 4-6l2-7 1-2a64 64 0 0 0 0-2l1-3a71 71 0 0 0-1-21v-1a90 90 0 0 0-2-9l1-2v2l6 13 4 5v1l1 2a40 40 0 0 1 0 4 68 68 0 0 1-5 18 37 37 0 0 1-2 4 15 15 0 0 1-1 1l-1 2c-4 4-7 8-12 11Zm3-55-1 1-4-7 1 1h3-1l-1-1h-1l-4-2a6 6 0 0 0-1 0l-8-6-5-4a65 65 0 0 1-15-24 46 46 0 0 0 21 3 29 29 0 0 0 5 0l1-1c10-2 14-9 16-14l8 1h3a32 32 0 0 0 1 0 46 46 0 0 0 6-1c5 7 14 12 27 13l-11 4h-1l-1 1h-2a27 27 0 0 1-15-3l-4-3 3 4s3 4 3 11h-2c-5 0-9-2-12-4l-1-1h-1l-3-2 2 3a25 25 0 0 1 0 20 36 36 0 0 1-1 3 42 42 0 0 1-1 2 35 35 0 0 1-3 4l-1 1v1Zm-17-11a49 49 0 0 1-5-3 43 43 0 0 1-4-3h-1l-1-1v-1a51 51 0 0 1-2-1l-5-7-1-1-1-1c-6-9-11-20-14-27l-3-5v-1a16 16 0 0 0-2-2l-2-2a7 7 0 0 0-1-1v-1l4-2 1 1 2 1 2 1c2 1 3 4 4 7l1 1v1l1 2v1l1 2 1 2 2 6v2l4 9 1 1v1l2 2a65 65 0 0 0 2 4 64 64 0 0 0 3 3 63 63 0 0 0 4 6 61 61 0 0 0 6 5l2 1h-1Zm-19-4a16 16 0 0 0-5-1c-3 0-6 2-8 4s-3 5-2 9c-5-2-7-5-7-8-1-3 0-6 1-7l3-2 4-3 4-2 15 6a46 46 0 0 0 2 2l2 2a43 43 0 0 0 5 3l1 1-15-4Zm-34-2h-4c-7-1-10-7-12-10l-1-1c-1-2-2-2-4-2 0-1 1-2 3-2 3 0 5 2 8 4l5 3 3 1c2 0 5-1 7-3l4-2 6-1 2 1a45 45 0 0 0 4 2l1 1-10 7-12 2Zm10-21c-3-3-5-5-9-5h-1c-1 0-3 0-4 2l-2 6c-3-4-8-13-4-21s14-9 20-9c0 0 2 0 4 4l3 6c3 6 8 17 14 26a42 42 0 0 0 1 2 71 71 0 0 0 5 6l-12-5v-1h-2v-1a51 51 0 0 1-2-1 38 38 0 0 1-2-1 34 34 0 0 1-2-1l-7-7Zm26-10a15 15 0 0 0 16 2l5-4 2-7h3l1 1 11 2c-2 4-5 10-14 13h-6c-13 1-20-2-22-3l-3-7a311 311 0 0 0-1-5 36 36 0 0 1 4-2c1 3 2 8 4 10Zm9-1c-2-3-3-8-2-10a31 31 0 0 1 1-1l2 1-1 10Zm3-10 9 1c0 2 0 4-2 7s-5 5-9 5h-1v-1c3-3 3-9 3-12Zm-4 12-6-2c-3-2-4-6-4-9a33 33 0 0 1 7-1c0 3 0 8 3 12Zm-7-27c7 0 15 3 22 5 8 2 16 5 24 5l4 1c15 0 26-4 31-6-4 4-11 11-24 13l-1 1a44 44 0 0 1-7 0h-5a66 66 0 0 1-4 0l-1-1h-1l-10-2h-3l-3-1h-1l-1-1a82 82 0 0 0-7-1h-4a44 44 0 0 0-2 0h-3l-7 1h-1l-1 1-5 2v-2l-1-1a9 9 0 0 0 0-1l-1-1c-1-3-2-5-4-6a11 11 0 0 0-2-2c2-2 7-5 18-4Zm101 81 2 8a38 38 0 0 1 0 4l-3-4-6-7-4-2a21 21 0 0 1-3-3 26 26 0 0 1-2-4 134 134 0 0 0-4-16 75 75 0 0 0-3-7l2 2 6 8a182 182 0 0 1 11 18 183 183 0 0 0-11-18 174 174 0 0 0-5-9l-7-8a54 54 0 0 0-3-4h1c13 13 22 28 29 42Zm3 17 2 10 3 11a243 243 0 0 0-5-29c5 14 8 27 9 35l-7 1-2-6-5-15a43 43 0 0 0 0-1 66 66 0 0 0-4-19 32 32 0 0 1 9 13Zm23-8v4a118 118 0 0 0-5 25l3-11 3-10a32 32 0 0 1 8-13l-2 7a66 66 0 0 0-2 13c0 6-3 11-4 15l-2 6a114 114 0 0 0-8-1c2-8 4-21 9-35Zm2-1 2-8c6-14 15-29 28-42h1a49 49 0 0 0-3 4 127 127 0 0 0-12 17 183 183 0 0 0-10 18l11-18a176 176 0 0 1 6-8l2-2a75 75 0 0 0-3 7 133 133 0 0 0-5 16l-2 4a23 23 0 0 1-3 3l-3 2-7 7-3 4 1-4Zm19-56c13-1 22-6 27-13l5 1h4l9-1c2 5 6 12 15 14h1l1 1a29 29 0 0 0 4 0h3c10 0 16-1 19-3l-4 9a64 64 0 0 1-11 15l-5 4a44 44 0 0 1-10 6l-3 2h-2l-1 1h-1 3l1-1-3 7h-1v-1l-1-1-1-1a37 37 0 0 1-2-4 43 43 0 0 1-1-2 36 36 0 0 1-2-3c-2-7-2-14 1-20l2-3-3 2h-1l-1 1c-4 2-8 4-12 4h-2c-1-7 3-11 3-11l3-4-4 3a25 25 0 0 1-16 3h-1l-1-1h-1l-11-4Zm2-28a82 82 0 0 0 36 5c8 0 16-3 23-5 8-2 15-5 23-5 10-1 15 2 18 4l-3 2-4 6v2h-1v1l-1 2a40 40 0 0 0-5-2v-1h-2a36 36 0 0 0-6-1h-9a82 82 0 0 0-7 1 131 131 0 0 0-2 1l-4 1h-2a153 153 0 0 1-11 2l-1 1a66 66 0 0 1-7 0 9 9 0 0 1-1 0h-1a43 43 0 0 1-7 0h-1l-1-1c-12-2-20-9-24-13Zm62 19c2 3 6 5 11 5 3 0 7-1 9-3 3-2 4-7 4-10l5 2-2 5a327 327 0 0 1-2 7c-3 1-9 4-23 3a28 28 0 0 1-4 0h-2c-8-3-12-9-14-13l12-2 1-1h3c0 1 0 4 2 7Zm12 1c-1-3-2-8-1-10a48 48 0 0 1 3 0c0 2 0 6-2 10Zm4-10 7 1c-1 3-2 7-4 9l-7 2h1l3-12Zm-5 12v1c-4 0-8-2-10-5l-2-7 10-1c0 3 0 9 2 12Zm30-22 1-1 3 2 1 1-1 1-3 2-1 2-1 1-2 5c-3 7-8 18-15 27v1l-1 1-5 7a39 39 0 0 1-2 1v1h-1v1h-1c-2 2-3 3-5 3a48 48 0 0 1-5 3l1-1a62 62 0 0 0 6-5 64 64 0 0 0 5-6 65 65 0 0 0 3-3 71 71 0 0 0 2-4l1-2 1-1v-1l4-9 1-2 2-6 1-2v-2l1-1v-2h1v-2h1c1-3 2-6 4-7a10 10 0 0 1 1-1 7 7 0 0 1 3-1Zm6 4c5 0 16 1 20 9 3 8-2 17-5 21 0-2 0-4-2-6-1-2-2-2-4-2-4-1-6 2-9 5l-8 7a36 36 0 0 1-3 2h-1l-2 1v1h-1l-1 1a112 112 0 0 1-11 5 71 71 0 0 0 4-6l1-1 1-1a186 186 0 0 0 16-32c2-4 4-4 5-4Zm0 36 4 2c3 2 5 3 8 3l2-1 6-3 7-4h1l3 2c-2 0-3 0-4 2l-1 1c-2 3-6 9-13 10h-4l-11-2-10-7 1-1a45 45 0 0 0 4-2l2-1 5 1Zm-2 18c-1 3-3 6-7 8l-2-9c-2-2-5-4-9-4a16 16 0 0 0-5 1l-14 4 1-1a43 43 0 0 0 5-3l1-2a46 46 0 0 0 2-2l16-6 3 2 5 3 3 2c1 1 2 4 1 7Zm-62 23a52 52 0 0 0 4 33 49 49 0 0 0 3 5 42 42 0 0 0 6 7l2 2a57 57 0 0 1-8-4c-5-3-9-7-12-11l-1-2-1-1a37 37 0 0 1-2-4 65 65 0 0 1-5-18 44 44 0 0 1-1-4l1-2 1-1 3-5a60 60 0 0 0 7-15l1 2a88 88 0 0 0-2 9v1a82 82 0 0 0-1 21v3l1 2v2l3 7 3 6-3-6-2-7a63 63 0 0 1-1-3 64 64 0 0 1-1-7v-4a80 80 0 0 1 2-15 82 82 0 0 1 2-7 37 37 0 0 0 2 3 47 47 0 0 0 1 2l1 1a72 72 0 0 0-3 10Zm0 51a47 47 0 0 0 15 16 41 41 0 0 0 14 7 58 58 0 0 1-9 0 57 57 0 0 1-7 0 48 48 0 0 1-7-1l-1-1h-1l-1-1h-1l-20-14c-6-8-9-17-10-26-2-9-2-18 1-27v-2c2-1 3-3 3-5l1 7 1 16v5l1-5a65 65 0 0 1 2-7 75 75 0 0 0 7 32 49 49 0 0 0 5 8l4 5 1 1 1 1v1a51 51 0 0 0 6 5l8 4-7-4-7-6-1-2-2-1a65 65 0 0 1-3-4 49 49 0 0 1-4-8 90 90 0 0 1-6-35h-1l1-3h1v-2a67 67 0 0 0 2 11l4 9a41 41 0 0 0 3 6l1 2a69 69 0 0 0 1 4l5 14Zm18 36a65 65 0 0 0 11 1l13-2a72 72 0 0 0 1 0c8-3 16-8 20-18 6-14 5-25 5-34-1-12-2-21 7-33 7-10 17-17 27-23 11-7 21-14 27-23a147 147 0 0 1 1 14v5a73 73 0 0 1 0 6 74 74 0 0 1-3 11v3l-1 1c-2 6-5 10-9 13l-1 1v1l-10 4-7 1h-3a6 6 0 0 0-1 0l-1 1h-1a2 2 0 0 0 0 1v2h1l5-1a55 55 0 0 1 9-3h2a36 36 0 0 1 3-1h2c7 0 15 4 22 10l1 1-1 1-6 9-1 1a26 26 0 0 1-1 0c-5 5-11 8-18 8l-13-2-4-1h-1a2 2 0 0 0-1 1v1l1 1 5 1h8a34 34 0 0 1 2 1h3c4 1 8 3 13 7l1 1a38 38 0 0 1 5 6 81 81 0 0 1-8 7h-1l-1 1-13 3-8-1-7-3a50 50 0 0 0-1-1 17 17 0 0 0-2 0 8 8 0 0 0-1 0h-1l-1 1v1h1l4 2 10 3a24 24 0 0 1 6 5l1 1 1 1 5 10-2 1c-5 3-10 4-15 4l-5-1a24 24 0 0 1-1 0 21 21 0 0 1-5-3 27 27 0 0 1-4-2l-1-1-1-1h-1l-1-1h-1l-1 1v1l1 2 3 1c3 1 8 3 11 9v1h1v1l1 10-2 1h-7c-9 0-13-2-16-5a18 18 0 0 1-2-2 28 28 0 0 1-1-3 20 20 0 0 0-1-1l-1-1a2 2 0 0 0-1 0h-1l-1 2 2 2a20 20 0 0 1 5 4 11 11 0 0 1 1 3 13 13 0 0 1 1 4v1l-1 1c0 2 0 5-2 7v1h-1a44 44 0 0 1-2 0c-16 0-18-8-19-12v-2a2 2 0 0 0-1-1 2 2 0 0 0-1 0h-1v3h1v1a15 15 0 0 1 2 3v7l-1 1v1a172 172 0 0 0-25-40Zm113-107 1-8v-3a165 165 0 0 0 12-10 134 134 0 0 0 17-16 98 98 0 0 0 3-4c7-10 22-27 24-27l2 4v2c2 7 2 19 0 29a82 82 0 0 1-1 3 93 93 0 0 1-1 3c-3 8-7 16-13 24l-1 1-1 1-6 8c-7 8-29 19-49 24h-1l-1 1h-1a26 26 0 0 0 2-1l1-1c4-3 8-8 10-16l1-1v-3h2l19-10 15-14a86 86 0 0 0 6-8l5-10a123 123 0 0 1-12 17l-15 14-18 9-1 1 1-9Zm116-161c6-15 10-17 11-17l2 1c5 5 6 24 4 49-6 61-43 98-65 117l-1 1-2 2-3 2a153 153 0 0 0-4 3l-2 3c-11 9-26 16-39 22 9-5 16-10 20-14a107 107 0 0 0 8-10l1-1 1-1c7-11 11-21 13-26a275 275 0 0 0 6-7 231 231 0 0 0 53-101 226 226 0 0 0 3-12l2-11-5 22-8 22c-6 14-11 29-19 42s-17 25-27 37a276 276 0 0 1-5 6c3-10 2-24 1-32 15-18 36-48 55-97Zm-72 187a117 117 0 0 1-10 6 140 140 0 0 1-21 9 163 163 0 0 1-5 2 38 38 0 0 0-20-10h2l3-1c13-4 33-11 49-21a117 117 0 0 0 6-3l9-7 1-1 1-1a152 152 0 0 1 4-3c8-6 13-9 16-9l2 1v11a55 55 0 0 1-3 12 78 78 0 0 1-44 42l-2 1-3 1c-14 6-28 8-40 9 4-1 8-4 12-8l1-1h1l5-10a168 168 0 0 0 6-2 127 127 0 0 0 31-16l9-8-10 7Zm-5 46a148 148 0 0 1-11 3 174 174 0 0 1-27 4 51 51 0 0 0-4-4v-1a35 35 0 0 0-12-8 155 155 0 0 0 5 0 163 163 0 0 0 59-11 155 155 0 0 1 7-3l16-3c4 0 6 1 7 3 0 0 0 4-4 10a66 66 0 0 1-2 3c-7 9-23 24-60 28h-4a175 175 0 0 1-31 0l13-4 1-1 1-1 8-6a131 131 0 0 0 28-5 152 152 0 0 0 10-3l10-5-10 4Zm-74 44h1c6 0 12-1 18-4h2a135 135 0 0 0 40-1l-10 1a161 161 0 0 1-30-2h-1l-5-10v-1l-1-1a25 25 0 0 0-3-3 116 116 0 0 0 29 5 203 203 0 0 0 20 0h10a451 451 0 0 1 7 0c11 0 16 1 17 5l-1 2c-2 3-6 6-12 8l-2 2a100 100 0 0 1-66 4l-13-5Zm-22 17 10 2a48 48 0 0 0 4 0h2l1-1h3a96 96 0 0 0 14 5 132 132 0 0 0 20 3l-10-2a126 126 0 0 1-9-2l-14-5-1-10v-1l-1-1a17 17 0 0 0-3-5 92 92 0 0 0 14 7 132 132 0 0 0 7 3 202 202 0 0 0 5 2l3 1a182 182 0 0 0 7 2l2 1 4 1 7 2c11 4 19 6 19 9-1 1-6 5-17 7h-2a76 76 0 0 1-12 1 86 86 0 0 1-53-19Zm9 25a106 106 0 0 1-7-5l-8-6a31 31 0 0 0 2-11v-3l1 1a99 99 0 0 0 5 5l1 1 2 1a140 140 0 0 0 21 16 298 298 0 0 1 4 3l4 2a116 116 0 0 1 4 3l5 5c0 1-6 3-16 3a74 74 0 0 1-11-1l-2-1c-8-2-26-7-39-26 3 1 8 3 14 3l3-1a69 69 0 0 0 10 7 101 101 0 0 0 7 5l8 3-8-4Zm-39-8v-2l1-1v-1l1-3 13 21a296 296 0 0 1 5 6v1l2 3 2 2v1c3 5 5 8 4 9l-3 1a26 26 0 0 1-8-1 50 50 0 0 1-6-2c-3-12-6-24-11-34Zm-113-90a73 73 0 0 0 3-6l3-8a210 210 0 0 0 1 14 115 115 0 0 0-7 0Zm12-8a59 59 0 0 1 7-13l-1 13-1 10a116 116 0 0 0-8-1 96 96 0 0 1 3-9Zm27-16v11c-1 4-3 14-7 20a119 119 0 0 0-14-4 104 104 0 0 1 4-27v-2l3-4 1-1a129 129 0 0 0-1 24v5l2-4a108 108 0 0 1 11-25 77 77 0 0 0 3-4l-2 11Zm0 34v-9a89 89 0 0 1 1-5v-2c1 8 4 15 8 21a126 126 0 0 0-9-5Zm-1-9 1 9-6-2a162 162 0 0 0 4-9l2-6-1 3a91 91 0 0 0 0 5Zm0-52a103 103 0 0 1 9-15l-2 13a156 156 0 0 0 0 8l-4 8-4 5-3 5-5 10a122 122 0 0 0-3 6v-3a151 151 0 0 1 2-22 97 97 0 0 1 3-15l5-12 3-1 10-11a49 49 0 0 0-1 5 92 92 0 0 0-11 19l-6 19 7-19Zm19-15 4-9a92 92 0 0 1 3-5c-2 7-1 14 1 19a48 48 0 0 1 0 3l-7 12-4 6-3 6v1l-3 10-1-13a327 327 0 0 1 0-17 84 84 0 0 1 4-24c4 0 8-1 11-3a110 110 0 0 0-2 5 115 115 0 0 0-3 9l-5 19 5-19Zm-20-11a80 80 0 0 1 4-5l7-6 2-1-2 11v1h2l-1 1-11 11-11 10a73 73 0 0 0-6 9 281 281 0 0 1 5-22c1-5 3-9 6-13a70 70 0 0 1 3-6 29 29 0 0 0 9 0 69 69 0 0 0-4 4 82 82 0 0 0-4 6l-7 12 8-12Zm-22 48 4-11a85 85 0 0 1 16-21l-1 1a108 108 0 0 0-7 23l-1 3c-1 4-8 12-10 16-3 3-4 6-5 10l-3 5a232 232 0 0 1 0-19l1-11 2-9 1-1c2-2 5-3 6-6a28 28 0 0 0 2-3l-2 11a168 168 0 0 0-8 24 235 235 0 0 1 5-12ZM258 485a49 49 0 0 1-5 2 45 45 0 0 1-8 1l-3-1c-1-1 0-4 4-9v-1l1-2h1a329 329 0 0 1 2-3v-1l5-6 13-21v3h1v3l1 1c-5 10-9 22-12 34Zm85-123v9a126 126 0 0 0-8 5c4-6 6-13 8-21v7Zm-1-36 3 4 3 5 4 9a109 109 0 0 1 4 11l1 4 1-5a116 116 0 0 0-1-24v1l3 4 1 2a193 193 0 0 1 3 27 118 118 0 0 0-14 4c-3-6-5-16-6-20a66 66 0 0 0-2-22Zm23 37v-10l-2-13 3 4 5 9a96 96 0 0 1 2 9 115 115 0 0 0-8 1Zm10-2a207 207 0 0 0 1-14l4 8a73 73 0 0 0 3 6h-8Zm-31-4v-3l2 6a162 162 0 0 0 3 9 122 122 0 0 0-5 2 95 95 0 0 0 0-14Zm24-25a235 235 0 0 1 4 12 234 234 0 0 0-3-12l-5-12-2-11a27 27 0 0 0 2 3l6 6 1 1 3 9 1 11a140 140 0 0 1-1 19 99 99 0 0 0-7-15c-3-4-10-12-11-16a61 61 0 0 0 0-3 95 95 0 0 0-8-24l7 7 8 14 5 11Zm-35-60 2 1 6 6a80 80 0 0 1 5 5 76 76 0 0 1 7 12 76 76 0 0 0-7-12 82 82 0 0 0-4-6 70 70 0 0 0-3-4 29 29 0 0 0 8 0 71 71 0 0 1 4 6l6 13a182 182 0 0 1 5 22 73 73 0 0 0-6-9l-11-10a44 44 0 0 1-12-12h1l1-1-2-11Zm-14 9a92 92 0 0 1 2 5 112 112 0 0 1 4 9l6 19a142 142 0 0 0-8-28 97 97 0 0 0-3-5l12 3 2 7 2 17a324 324 0 0 1 0 17l-1 13-3-10-1-1-3-6-4-6-6-12a35 35 0 0 1-1-3c3-5 4-12 2-19Zm18 27-1-13 4 7 4 8 8 19-7-19a103 103 0 0 0-4-9l-6-10-2-5 11 11a55 55 0 0 1 2 1l5 12a97 97 0 0 1 4 15 120 120 0 0 1 1 25 119 119 0 0 0-7-16l-3-5c-2-1-7-9-9-13a181 181 0 0 0 0-8ZM237 441l1-1a96 96 0 0 0 5-5v-1 6l3 8-9 6a106 106 0 0 1-7 5l-7 4 8-3a98 98 0 0 0 7-5 69 69 0 0 0 9-7l4 1c6 0 10-2 13-3a63 63 0 0 1-39 26l-1 1a32 32 0 0 1-9 1 74 74 0 0 1-2 0l-12-1-4-2 4-5a89 89 0 0 1 4-3 172 172 0 0 1 4-2l5-3 20-14 1-2 2-1Zm-14-24a17 17 0 0 0-3 5v1l-1 1v10l-14 5a126 126 0 0 1-10 2 172 172 0 0 1 0 1 132 132 0 0 0 10-2 96 96 0 0 0 15-5h3l1 1h6l10-2a86 86 0 0 1-65 18 44 44 0 0 1-3 0c-10-2-16-6-16-7 0-3 7-5 19-9a732 732 0 0 1 10-3l3-1a183 183 0 0 0 7-2 198 198 0 0 0 15-6 98 98 0 0 0 4-1 92 92 0 0 0 9-6Zm-57-4a162 162 0 0 0 31 0h1c7 3 13 4 18 4h1l-13 5c-8 3-16 4-25 4-16 0-30-4-40-8l-3-2c-5-2-9-5-11-8l-1-2c1-4 6-5 16-5a451 451 0 0 1 13 0h4a406 406 0 0 0 31-1l19-4a26 26 0 0 0-3 3l-1 1-1 1-4 10h-1l-20 2a161 161 0 0 1-10 0l-11-1 10 1Zm32-46-11 7-1 1-1 1a50 50 0 0 0-3 4 192 192 0 0 1-6 0l-22-4a147 147 0 0 1-10-3 183 183 0 0 1 0 1 152 152 0 0 0 31 7 131 131 0 0 0 7 1 56 56 0 0 0 8 7l1 1 13 4a124 124 0 0 1-30 0h-5c-34-3-51-17-59-28a49 49 0 0 1-2-2 66 66 0 0 1-1-1l-4-10c1-2 4-3 7-3l16 3a151 151 0 0 1 17 6 163 163 0 0 0 55 8Zm-60-39a113 113 0 0 0 9 6 127 127 0 0 0 27 12 46 46 0 0 0 8 11c3 4 7 7 12 8h-1c-11-1-25-3-40-9l-2-1-2-1a107 107 0 0 1-4-2 78 78 0 0 1-41-41l-3-11c-1-7 0-11 1-11l2-1c3 0 8 3 15 9a155 155 0 0 1 4 3l2 1 1 1 9 7a135 135 0 0 0 5 3c17 10 37 17 50 21l3 1h2-2c-7 2-13 5-18 10l-6-2a141 141 0 0 1-21-9 117 117 0 0 1-10-6l-9-7 9 8Zm379 280a1573 1573 0 0 1 82-17 1574 1574 0 0 0-83 20l1-3Zm-40 58 17 12-9 4-11-8-3-2a145 145 0 0 0 6-6Zm52-156v13a213 213 0 0 1 1 8v6l-1 1c0 13-2 25-4 37l-1 2a191 191 0 0 1-9 30l-1 2a196 196 0 0 1-1 3l-1 2a177 177 0 0 1-4 7c-8 16-19 31-32 43a141 141 0 0 1-7 6v1c-22 17-48 28-76 28-24 0-47-8-66-21l-2-1a137 137 0 0 1-9-7l-1-1c-12-11-23-23-32-37v-2c-8-12-14-25-18-40l-1-2c-4-16-7-32-8-50v-1a210 210 0 0 1 0-6 208 208 0 0 1 0-8l1-11v-4l1-2a200 200 0 0 1 3-20l1-3a191 191 0 0 1 38-76l1-1a147 147 0 0 1 15-14 135 135 0 0 1 14-10c11-7 22-12 34-16h1l9-2h1l9-1h18l9 1a113 113 0 0 1 10 2c12 4 24 9 35 16a135 135 0 0 1 14 10 147 147 0 0 1 14 14l2 1a169 169 0 0 1 38 76l1 3a200 200 0 0 1 3 20v2l1 2Zm207-289c16-23 27-34 32-34l3 1c2 3 2 11 0 24a193 193 0 0 1-124 144h-1c-11 4-22 6-32 8 7-2 15-4 23-8l2-1 2-1h1c26-13 37-31 41-44a237 237 0 0 0 71-87 152 152 0 0 0 7-18l-8 18a238 238 0 0 1-32 49c-9 11-18 20-28 29a218 218 0 0 1-9 8 56 56 0 0 0 2-9c1-6 1-11-1-13h-8c11-9 37-34 59-66Zm41 80c7-15 10-25 8-29l-4-2c-5 0-19 10-40 30-17 15-35 27-51 36 44-30 76-77 83-124 2-14 2-22-1-25l-4-2c-6 0-16 11-33 35-10 15-21 28-31 39 16-21 30-49 34-86 2-26 0-45-4-50l-4-2c-4 0-8 6-13 18-18 48-39 78-54 96l-2-4a1 1 0 0 0-1 0c-4 0-25 27-25 28-9 11-20 21-31 29l-1-15-1-2-1 2c-6 10-17 17-28 24-10 7-20 14-27 24-9 12-9 23-8 34 1 10 1 20-4 33-7 16-22 19-33 19l-14-2a154 154 0 0 0-7-7 67 67 0 0 1-2-3c10 3 19 3 29 0l6-2-7 1-10-2-9-5-7-7c-3-2-5-5-6-8-3-5-5-10-6-16a38 38 0 0 0 28 16l-3-1-7-6a41 41 0 0 1-6-7 52 52 0 0 1-8-27l1-10a71 71 0 0 1 1-6l2-3 1 1 1 1 1-2c0-7 5-9 6-10l3-1 24-5 4-1c3 0 6 1 7 3 2 2 3 5 2 9l-1 2 2-1c6-2 9-6 10-9l-1-7a33 33 0 0 0 14 1c8-1 12-7 14-10l1-1 3-2 2 1 2 1-1-2s-2-4-6-4h-1c-3 0-6 2-8 4l-5 2a6 6 0 0 1-2 1l-7-2-4-2-6-1 6-6c3-3 5-5 8-5l3 2c2 3 2 8 2 8l-1 3 2-2c1-1 11-15 6-26-4-8-14-10-20-10l-1-2c-1-2-3-2-5-2h-3c-2-2-7-6-19-5-8 0-16 3-23 5a88 88 0 0 1-28 6c-20 0-33-7-33-7l-3-2 2 3s9 13 26 17c-5 6-14 11-27 11h-4l2 1 13 7c-13 13-22 29-29 44-7 17-10 32-12 42h-1c-1-10-5-25-12-42a156 156 0 0 0-29-44l13-7 2-1h-4c-12 0-21-5-26-11 17-4 26-17 26-17l2-3-3 2s-13 7-34 7a91 91 0 0 1-4 0c-8-1-16-3-23-6-8-2-15-5-23-5-12-1-18 3-20 5a8 8 0 0 0-2 0c-2 0-4 0-5 2a4 4 0 0 0-1 2c-6 0-17 2-20 10-6 11 5 25 5 26l2 2v-3s-1-5 2-8c0-1 1-2 3-2 3 0 5 2 8 5l5 6-6 1-4 2c-3 1-5 2-8 1l-5-2c-3-2-6-4-9-4-5 0-6 4-6 4l-1 2 2-1 2-1 2 2 1 1c2 3 6 9 14 10l4 1 10-2v7c1 3 3 7 10 9l1 1v-2c-1-4 0-7 1-9 2-2 4-3 7-3l5 1 23 5 4 1c0 1 6 3 6 10v2l1-1 2-1 1 3a71 71 0 0 1 2 16 58 58 0 0 1-7 27 41 41 0 0 1-6 7l-8 6-2 1c7-1 14-4 19-7 4-2 6-5 9-9a58 58 0 0 1-12 24l-8 7-9 5-10 2-6-1 6 2c9 3 19 3 28 0a68 68 0 0 1-2 3 155 155 0 0 0-7 7l-13 2c-11 0-26-3-33-19-6-13-5-23-4-33 0-11 1-22-8-34-7-10-18-17-28-24-11-7-21-14-27-24l-2-2v2l-1 15c-11-8-23-18-31-29a139 139 0 0 0-26-28l-3 4c-15-18-35-48-54-96-4-12-9-18-13-18l-3 2c-5 5-6 24-4 50 3 37 18 65 34 86-10-11-21-24-31-39-17-24-28-35-34-35l-3 2c-3 3-3 11-1 25 6 47 38 94 82 124-15-9-34-21-50-36-22-20-35-30-41-30-2 0-3 1-3 2-3 4 1 14 7 29 5 10 17 35 41 58 16 15 34 26 54 33-17-4-36-11-56-23-13-9-23-13-28-13-2 0-3 1-3 2-1 1-3 6 16 29 25 29 63 48 103 52a252 252 0 0 1-7 0c-15 0-31-2-46-5l-18-2c-6 0-10 1-11 4-1 5 8 12 23 20 26 12 51 19 75 19 15 0 30-3 44-8-17 7-40 13-69 15-13 0-19 2-19 6 0 6 21 13 40 15h19c20 0 39-3 55-10-15 8-34 14-57 17-10 2-14 4-14 7 0 5 19 10 40 10l21-2c17-3 31-8 43-15v2l-28 18c-9 5-14 8-13 11s4 4 10 4c9 0 20-2 31-6 0 17 3 33 7 48a935 935 0 0 1-99-51c-1 0-8-3-17-3-14 0-32 8-36 45-3 43 26 64 27 65l108 21c-5 6-8 13-10 18-3-1-9-4-13-4h-3c-3 2-7 6-9 12h-5c-3 1-7 4-9 9h-1l-2 1c-5 1-11 8-10 19 0 4 2 7 4 9a804 804 0 0 0-11 6 670 670 0 0 0-14 8l-19 13-5 3-2 1 2 1 17 1c7 0 12-1 16-3a618 618 0 0 1 50-29l13-7 3-1c15 7 30 11 46 13-7 10-15 20-18 27-9 23 10 34 16 38v1-1c5 8 13 13 16 15l1 1v-1l3-3a110 110 0 0 0 37 28h1l6-6c14 12 23 17 23 17l1 1v-1l6-6c11 12 18 22 18 23l1 1 1-1c0-1 6-11 17-23l6 6 1 1v-1c1 0 10-5 24-17l6 6c1 0 10-4 25-15 6-4 10-8 13-13a167 167 0 0 0 2 3l1 1v-1c4-2 12-7 16-15v1l1-1c6-4 25-15 15-38l-9-16c52 25 86 48 87 48l7 1c12 0 42-4 57-41 6-17 6-30 0-41-7-13-23-16-23-16l-35-7-1-5c-3-10-11-14-16-14a10 10 0 0 0-1 0l-3 2a17 17 0 0 0-12-5l-5 2c-4-5-9-7-14-6-8 0-26 7-27 7h-1l-6-1 37-16 1-1a947 947 0 0 1 18-7l2-1 1-1 7-2 2-1 2-1 28-9 50-18 2-1-2-1a125 125 0 0 1-25-13h1c7 3 21 9 32 10h1l20-12 6-4 2-2 2-2 3-2c6-6 9-12 8-16-2-8-18-10-32-11l-4-1h-24l-8 1h-2l-47 4-5 1-7 1-60 10a205 205 0 0 0 4-35c11 4 22 6 30 6 7 0 10-1 11-4 0-3-4-6-14-11l-28-18v-2a121 121 0 0 0 64 17c21 0 40-5 41-10 0-3-5-5-14-7-24-3-42-9-57-17a137 137 0 0 0 73 10c20-2 41-9 41-15 0-4-6-6-19-6-29-2-52-8-70-15 14 5 29 8 45 8 24 0 49-7 74-19 16-8 24-15 23-20 0-3-4-4-10-4l-18 2a252 252 0 0 1-53 4c39-3 78-22 102-51 20-23 18-28 17-29 0-1-1-2-4-2-5 0-14 4-28 13-19 12-39 19-55 23a166 166 0 0 0 94-91Z"/>
  <path d="M154 118a14 14 0 0 1 3-1c5 0 9 3 14 5 4 3 8 5 12 4 8-1 17-14 19-16h1c2 0 2 2 2 5l-1 11-1 10-3 3-5 6c-4 3-7 5-14 5l-10-1-11-1c-6 0-9 2-11 5l2-8c4-5 11-7 18-8l2-1 5-1h-5c-8-1-10-4-13-7l-3-3-5-2c-4 0-7 2-10 3 2-3 7-7 14-8Zm49-10a3 3 0 0 1 3 0h1l1 1h1l4 7c1 2 2 5 5 7l6 1 5 1v3c-2 7-1 16 0 38v1c0 15-3 20-7 24l-6 10v2l-1 1v1a21 21 0 0 0 4 16c-3-2-5-4-8-10l-1-2-1-2-6-12c-3-4-5-6-4-10l3-9c2-6 3-9 2-20a102 102 0 0 1 1-21v-1l1-8 1-11-1-6a3 3 0 0 0-1 0 4 4 0 0 0-2-1Zm19 99 3-1 11-3 17-5 1 1 1 8 1 1c0 5 13 8 26 8s26-3 26-8v-1l2-7 6 2c6 2 12 4 18 4l7-1c-5 14-12 21-23 21a171 171 0 0 0-44-6l-15 4-21 3c-5 0-9-1-13-3l-2-1s-7-7-6-17l5 1Zm84-2v-1h-1a18 18 0 0 0-1 0v-1h-1a12 12 0 0 0-1 0l-1-1a15 15 0 0 0-1 0h-1l5-2-2-2-1-1-1-1h3l1 1h2v1h2v1h1-1a53 53 0 0 0-1 6h-1Zm-49 2c2-3 11-5 25-5s23 2 25 5v1c0 3-10 6-25 6s-25-3-25-6v-1Zm7-11-4 4 5 2a20 20 0 0 1-1 0h-1l-1 1h-2v1h-2v1h-1a56 56 0 0 0-2-6l1-1h2v-1h2l1-1a13 13 0 0 1 1 0h2Zm0 1 3 1-2 2-2-1 1-2Zm17-3-1 1-3 2 4 3h-2a54 54 0 0 0-2 0h-5l-1 1h-4l-1 1 3-4-4-2-1-1h4l1-1h8l2-1h3l-1 1Zm3 3-2 2-2-2 2-2 2 2Zm16 0 1 2-2 1-2-2 2-1h1Zm-1-2-1 1-1 1-3 1 4 4a16 16 0 0 0-1-1h-4l-1-1h-9l4-3-2-2-2-1-1-1h3l2 1h8l1 1h4-1Zm-48-7c2 2 4 4 7 4l4-1 3-3v-6a2 2 0 0 0 0-1v1l5 6a6 6 0 0 0 3 0h1c6-1 8-7 8-9 0 2 2 8 8 9h1a6 6 0 0 0 3 0l5-6a3 3 0 0 0 0-1v7l3 3 4 1c3 0 5-2 7-3a61 61 0 0 0-4 8 13 13 0 0 0-1-1h-1a37 37 0 0 0-2-1 11 11 0 0 0-1 0h-1l-1-1h-3l-1-1a20 20 0 0 0-1 0 77 77 0 0 0-1 0h-1a20 20 0 0 0-1 0h-1l-1-1h-3a18 18 0 0 0-1 0h-14a23 23 0 0 0-1 0h-1l-1 1h-5l-1 1h-3l-1 1h-2a19 19 0 0 0-1 1h-2l-1 1v-1h-1a60 60 0 0 0-3-8Zm-1-2v-1l1-1a2 2 0 0 1 0-1h3l-2 3a2 2 0 0 1-1 0h-1Zm-2-6-1-1h-1v-1 1l-1-6c1-5 4-9 11-11l2 4v1h1l2 7v4c-2 0-3 3-3 3l-1 1h1l4 2h1v-1 5a5 5 0 0 1-2 1c-3 2-6 1-8-1h-1l1-1 3-4v-1h-6l-2-2Zm1 4h-1v-1a3 3 0 0 1-1 0 7 7 0 0 1 0-1v-1l1 1 1 1a3 3 0 0 0 0 1Zm14-4v1l-1 1-2-1 1-2h1l1 1Zm0-2h-1l1-3 2 2-1 2a3 3 0 0 0-1-1Zm1-19a38 38 0 0 1 3 4l1 1c2 5 4 9 4 14v-1l-5-1h-1l-3-3a65 65 0 0 0-3-6v-2a59 59 0 0 0-3-4l7-2Zm3 21a2 2 0 0 1-1 0h-1l1-2h4l-2 2h-1Zm1 2 4-4 1 8v1c-3 0-5-3-6-5h1Zm4-19a62 62 0 0 1 3 0h1v3l2 9-3 2-1 1 1 1 4 2h1c-1 2-2 5-5 6v-1l-1-8c-1-4-2-9-5-14l3-1Zm1-5h1v1l1 1a20 20 0 0 1 0 1h-2l-1 1 1-4Zm3 0h1c1 2 3 3 5 3s4-1 5-3h1v2h-1v4l-1 1a214 214 0 0 0-1 9l-2-3-1-1-1 1-2 3a230 230 0 0 0-1-9l-1-1v-4l-1-1v-1a9 9 0 0 0-1 0h1Zm6-5c2 0 4 2 4 3v2a3 3 0 0 1-1 1l-3 1-3-2a3 3 0 0 1-1 0 2 2 0 0 1 0-1v-1c0-1 2-3 4-3Zm-6-5v-6l6 3-6 3Zm9-9-3 6-3-6h6Zm0 12h-6l3-6 3 6Zm3-9v6l-6-3 6-3Zm-3 35 2 1-2 1-2-1 2-1Zm-4 1-2 1-2-1 2-1 2 1Zm0-3 1-2 1 2v1a3 3 0 0 0-1 1 4 4 0 0 0-1-1 4 4 0 0 0 0-1Zm11-12 3 1c-3 5-4 10-5 14l-1 8v1c-3-1-5-4-5-6h1l4-2 1-1-1-1-3-2 2-10v-2h4Zm-3-2v-1l1-1 1-1v4-1a30 30 0 0 0-2 0Zm8 21c-1 2-3 5-6 5v-1l1-8 4 4h1Zm-1-2-2-2h3c1 0 2 1 1 2a2 2 0 0 1-1 0h-1Zm0-16 1-1 3-4 6 2a60 60 0 0 0-2 4v2a64 64 0 0 0-3 6l-3 3h-1a3 3 0 0 0-1 0l-4 1v1c0-5 2-9 4-14Zm6 15h1l1 2-2 1a2 2 0 0 1-1-1v-1l1-1Zm0-1h-1a3 3 0 0 0-1 1 3 3 0 0 0-1-2l2-2 1 3Zm17-5-1 6v-1 1h-1l-1 1-2 2h-6v1c0 1 1 4 3 4v1c-2 2-5 3-8 1a5 5 0 0 1-2-1v-5 1h1l4-2h1l-1-1s-1-3-3-3v-4a66 66 0 0 1 2-7h1v-1l2-4c7 2 10 6 11 11Zm-2 9v1h-1v1a3 3 0 0 0-1 0 3 3 0 0 0 0-1l1-1 1-1v1Zm-3 4h-2c-1 0-2-1-2-3h3v1l1 1v1Zm29 19 1-1v-1l4-17v-2l1-7 2-17c8-1 17-3 26-3l-1 12-3 19v2c-3 15-7 25-9 28-3 5-7 5-12 6l-6 1-10 2-8 1h-1a16 16 0 0 1-2 0l-3-1c10-2 17-9 21-22Zm-12-33-1-1h1c2-4 8-8 18-10l-2 16a153 153 0 0 1-1 6c-10-3-15-7-15-11Zm-1-3-1-5 9-5 1-6-5-4-7 4-1-4h1v-1h2a7 7 0 0 1 0-1h2l1-1h1l1-1h2l1-1h1l1-1h2l1-1h3l1-1h3l1-1h4l1-1h4l1-1h5l1-1h9l1-1h12a83 83 0 0 1 2 0 158 158 0 0 1 3 0h16l2 1h1a53 53 0 0 0 2 0h5l1 1h6l1 1h3a23 23 0 0 0 2 1 73 73 0 0 0 3 0l1 1h3l1 1h1a94 94 0 0 1 2 0l1 1h2l1 1h2l1 1h1l1 1h2l1 1h1l1 1h1l1 1h1l-1 4-7-4-5 4v6l9 4-1 6v-1l-1-1a6 6 0 0 0-1 0v-1h-1v-1a9 9 0 0 0-1 0l-1-1h-1l-1-1h-1l-1-1h-1l-1-1h-2l-1-1h-2l-1-1a16 16 0 0 0-2 0h-1a172 172 0 0 0-1-1 28 28 0 0 1-1 0h-2a39 39 0 0 0-2-1h-1a38 38 0 0 1-1 0h-2l-1-1h-7a37 37 0 0 0-1-1h-10l-2-1h-5a81 81 0 0 0-2 0h-16l-1 1h-11l-1 1h-5a43 43 0 0 0-2 1h-5l-1 1h-3l-1 1h-2a106 106 0 0 0-2 1h-2l-1 1a22 22 0 0 0-2 0h-1v1a19 19 0 0 0-2 0l-1 1h-1v1h-2v1h-1v1h-1l-1 1h-1v1l-1 1Zm-2-11v-4l6-3 3 3v4l-7 3-2-3Zm-3-10a150 150 0 0 0-9-22h1l1-1c3 3 9 7 16 7l9-2c3-2 5-4 6-7l1-6v-1a29 29 0 0 0 0-4h2a6 6 0 0 0 2-2c2 5 6 11 13 13a14 14 0 0 0 7 0c10-1 15-10 17-16a7 7 0 0 0 4 0c2 6 6 15 17 16h3a14 14 0 0 0 4 0c6-2 10-8 12-13a6 6 0 0 0 3 2h2a27 27 0 0 0-1 4v1h1l1 6c1 3 3 5 6 7l8 2c7 0 13-4 16-7l1 1h1l-9 22a40 40 0 0 0-2-2 53 53 0 0 0-3-1 75 75 0 0 0-3-2 6 6 0 0 1-1 0l-3-1-3-1h-1a157 157 0 0 0-3-1h-1l-4-1-4-1a168 168 0 0 0-5-1 130 130 0 0 0-4-1h-5v-1h-5a247 247 0 0 0-5 0l-5-1h-21l-4 1h-10l-1 1h-4l-5 1-4 1h-1a133 133 0 0 0-3 1h-1l-4 1-3 1h-1a112 112 0 0 0-4 1 62 62 0 0 0-3 1 63 63 0 0 0-3 2 81 81 0 0 0-3 1l-3 2Zm-10-24a3 3 0 0 1-1 0l-2-2a8 8 0 0 1-1-1v-1a8 8 0 0 1-1-2v-1l1-1 1-2h2l1 1h1a8 8 0 0 1 1 2 8 8 0 0 1 1 4v1l-1 1v1h-2Zm-5-10h-1v1a11 11 0 0 1-1-2v-8a30 30 0 0 1 4 4 8 8 0 0 1 2 3h-1l-2 1-1 1Zm-3-12h-1v6l-5-11c3-7 10-13 17-17v1l1 1 5 15c-4 2-9 5-12 9l-4-3h-1v-1Zm-5-17c1-7 4-13 10-18l5 11c-6 4-13 9-16 16l1-9Zm27-28 6 12c-1 1-9 3-17 8l-4-12 15-8Zm24 42v-1h1a7 7 0 0 1 2-1 5 5 0 0 1 1 0l8 2c-1 2-4 6-7 7h-1a7 7 0 0 0-4-7Zm-5 11a7 7 0 0 1-1-1 5 5 0 0 1-1 0 6 6 0 0 1-1-3 6 6 0 0 1 0-3 3 3 0 0 1 0-1l1-1 1-1 1-1h3v1h1a5 5 0 0 1 1 1 6 6 0 0 1 2 2v3a6 6 0 0 1 0 1h-1v1l-1 1-2 1h-2a5 5 0 0 1-1 0Zm-12 10-9-22c6-4 12-6 16-6-1 2-2 5-1 6v1h-1c-3 1-7 8-7 8l-1 1 1 1 9 3 2-1h1l2 1a26 26 0 0 1 0 4l-12 4Zm1 3-1-2 12-3-1 5-5 5-2 1-3-6Zm-6 0 4-1v1l3 7c-6 1-10-1-14-3a102 102 0 0 1 7-4Zm-5-27-6-15v-1l-1-1a72 72 0 0 1 3-2 100 100 0 0 1 7-3l7-3 7 19c-3 0-10 2-17 6Zm17 2 2-7v-2c2 2 6 4 6 7a8 8 0 0 1 1 1l-1 1h-3a7 7 0 0 0-3 1 9 9 0 0 0-1 0 7 7 0 0 1-1-1Zm0 9a7 7 0 0 0 2 3h-2l-7-2c1-3 4-6 6-7h2v1l-1 5Zm-24 10-3-4a5 5 0 0 0-1 0l1-1a7 7 0 0 1 1-1h3l6 1c-1 2-3 6-5 7a8 8 0 0 1-1 1l-1-3Zm1 5a9 9 0 0 0 2-1c3-2 6-9 6-10v-1l-8-1-4 1h-1l-2-3 12-9 9 22a94 94 0 0 0-7 4l-5 2a28 28 0 0 1-2-2 21 21 0 0 1-1-1l1-1Zm30-71a94 94 0 0 1 7 11l1 1c7 12 10 24 12 35l2 22v2c-9 0-14-7-17-13l1-1a9 9 0 0 0 3-1c4-1 8-8 8-8l1-1h-1c-1 0-6-3-10-3h-2l-2 1v-1c-1-4-7-7-8-8h-1l-6-17-1-1-6-12 19-6Zm18 10h5l2-1h3v2l1 2v4a2378 2378 0 0 1 5 25c-4 1-8 5-8 5l-1 1h1c0 1 6 6 9 6a8 8 0 0 0 2 0 8 8 0 0 0 2 1c-2 5-6 14-15 15v-1l-2-21c-2-11-5-24-12-36a128 128 0 0 1 8-2Zm1-13h3v1h1v1h1v1h1v2a19 19 0 0 1 1 1v1l1 1v2l-4 1-5 1c-1-3-2-10 1-12Zm8 0 4 1c1 4 6 7 11 7-4 0-7 3-7 7 0 2 2 5 5 5-3 1-5 4-5 6 0 4 4 7 8 7s7-3 7-7c0-2-2-5-5-6 3 0 5-3 5-5 0-4-3-7-7-7 6 0 10-3 12-7l4-1h2v1h-1v1l-1 1a29 29 0 0 0 0 1l-1 1v2h-1v2l-1 1v2a71 71 0 0 0-1 4v2l-4 23-1 2v1h-1c0-4-5-9-6-10v-1l-1 1c0 1-5 6-5 10h-2l-4-24-1-4a71 71 0 0 0 0-4l-1-1v-3a25 25 0 0 0-1-1v-1a54 54 0 0 0-1-1v-2l-1-1-1-1a19 19 0 0 0 0-1h-1v-1l3 1Zm22 26c0 3-3 5-6 5s-6-2-6-5 3-4 6-4 6 2 6 4Zm-12-11c0-3 3-5 6-5s6 2 6 5c0 2-3 4-6 4s-6-2-6-4Zm6-26c6 0 11 4 11 9v2a8 8 0 0 1-1 0 9 9 0 0 1 0 1c-2 3-6 6-10 6-5 0-9-3-10-6a8 8 0 0 1-1-1 8 8 0 0 1 0-1 7 7 0 0 1 0-1c0-5 5-9 11-9Zm19 13c1-2 3-2 4-2 3 1 3 3 1 12a148 148 0 0 0-4-1h-1l-4-1 1-1v-2l1-1v-1l1-1v-1l1-1Zm-14 45 1-1h1c2 0 6 3 8 5l-8 4a6 6 0 0 1-1 0 7 7 0 0 0-1-8Zm-10-3c0-3 3-6 5-8 1 2 4 5 4 8v1h-1a7 7 0 0 0-3 0 7 7 0 0 0-3 0h-1a9 9 0 0 0-1 0v-1Zm0 5 1-1h1v-1h1a5 5 0 0 1 2-1 5 5 0 0 1 2 1l1 1h1a5 5 0 0 1 1 7 7 7 0 0 1-1 0l-1 1a5 5 0 0 1-1 1 5 5 0 0 1-2 0 5 5 0 0 1-2 0 6 6 0 0 1-2-1 8 8 0 0 1 0-1 5 5 0 0 1-1 0 5 5 0 0 1-1-3l1-3Zm-2 6h-1l-7-4c1-2 5-5 7-5a6 6 0 0 1 3 1h-1a7 7 0 0 0-1 5v3Zm40-40c-7 12-10 25-12 36-2 8-2 15-2 21v1c-10-1-14-10-15-15a8 8 0 0 0 1-1 8 8 0 0 0 2 0c4 0 9-5 10-6h1l-1-1-8-5 3-22 1-5 1-2v-3l1-1h3l2 1a144 144 0 0 1 13 2Zm2 0v-1a95 95 0 0 1 8-11l19 6-6 12h-1v1l-7 17h-1c0 1-6 4-8 8v1l-2-1h-1c-4 0-10 3-10 3h-1l1 1s4 7 8 8a9 9 0 0 0 3 1v1c-2 6-8 13-17 13v-2l3-22c1-11 5-23 12-35Zm44 2-5 12c-8-5-15-7-17-8l7-12 15 8Zm12 20 1 9c-4-7-10-12-16-16l4-11c6 5 10 11 11 18Zm-4 23v-5l-1-1-1 1-4 3c-4-4-8-7-13-9l6-15v-1h1v-1c7 4 13 10 16 17 0 4-2 8-4 11Zm-2 3v1l-1 1-1 2v-1l-1-1a4 4 0 0 0-2-1h-1l1-2 1-1 1-2 3-2v6Zm-12 9-1-1c-2-1-4-5-5-7l6-1h3a7 7 0 0 1 1 1l1 1a5 5 0 0 0-1 0l-3 4a10 10 0 0 0-1 3Zm-7 4a93 93 0 0 0-7-4l8-22 13 9-2 3h-2l-3-1-8 1-1 1h1c0 1 3 8 6 10l2 1v2a34 34 0 0 1-3 2 98 98 0 0 0-4-2Zm-9-1 1-1a104 104 0 0 1 11 5c-4 2-9 4-14 3l2-7Zm-1-2v2l-3 6-2-1c-3-1-4-3-5-5l-2-5 12 3Zm-11-9a8 8 0 0 0 1-1h2l1 1c4 0 9-3 9-3l1-1v-1c-1 0-4-7-7-8a9 9 0 0 0-1 0v-1l-1-6c3 0 10 2 16 6l-9 22c-6-3-10-4-13-4l1-4Zm4-14v1h-1a7 7 0 0 0-3-1 7 7 0 0 0-2 0h-2a6 6 0 0 0 0-1 8 8 0 0 1 0-1c1-3 4-5 6-7v1h1v1c1 2 2 5 1 7Zm0-8 8-19a88 88 0 0 1 16 8v2l-6 15c-8-4-15-6-18-6Zm0 11h2c2 1 5 4 6 7l-8 2a7 7 0 0 1-1 0 7 7 0 0 0 1-3v-6Zm-11 2a6 6 0 0 1 2-2 5 5 0 0 1 0-1h1l1-1h2a5 5 0 0 1 2 2h1v1h1v1a6 6 0 0 1 0 3 6 6 0 0 1-2 3 5 5 0 0 1-1 1 5 5 0 0 1-2 0h-2l-2-1a5 5 0 0 1-1-1v-1a6 6 0 0 1 0-1 6 6 0 0 1 0-3Zm-2 3a8 8 0 0 1-2 0l-6-7 8-2h1a7 7 0 0 1 3 1l-1 1a7 7 0 0 0-3 4 7 7 0 0 0 0 3Zm46 12a8 8 0 0 1 0 2l-1 1a8 8 0 0 1-1 1 6 6 0 0 1-1 2h-1a4 4 0 0 1-1 0h-1l-1-1v-3a8 8 0 0 1 3-5l1-1h2l1 2a6 6 0 0 1 0 1v1Zm-18 40-1 3-7-3-1-4 4-3 6 3-1 4Zm-2 15c0 3-6 7-16 10v-6l-2-16c9 2 16 6 17 10h1v2Zm-13 30v2c5 13 12 20 21 22h1a27 27 0 0 1-6 1l-8-1-10-2-6-1c-5-1-9-1-12-6-3-3-6-13-9-28v-1l-1-1a215 215 0 0 1-4-31c10 0 19 2 27 3a144 144 0 0 1 3 24v2l4 17Zm9 3c7 0 12-2 18-4l7-2a53 53 0 0 1 1 7v1c0 5 14 8 27 8 12 0 26-3 26-8v-1a55 55 0 0 1 2-8v-1c7 1 13 3 17 5l12 3 3 1 5-1c1 10-6 16-6 17l-2 1c-4 2-9 3-14 3l-10-1-11-2-15-4a59 59 0 0 0-5 0c-13 0-30 4-38 6-11 0-19-7-24-21l7 1Zm77-1a4 4 0 0 0 0-1 7 7 0 0 0-1 0h-1l-1-1a7 7 0 0 0-1 0 10 10 0 0 0-1 0v-1h-2l4-2-3-4h3l1 1h2v1h1a9 9 0 0 1 1 0v1a56 56 0 0 0-1 6h-1Zm-49 2c1-3 11-5 25-5 13 0 23 2 24 5v1c0 3-10 6-24 6-15 0-25-3-25-6v-1Zm6-11-1 1v1l-2 2 5 2h-3v1h-2l-1 1h-1l-1 1a57 57 0 0 0-2-6l1-1h1l1-1h2v-1h3Zm1 1 2 1-1 2-2-1 1-2Zm16-3-1 1-2 2 4 3h-9l-1 1h-1a72 72 0 0 0-2 0h-2v1l3-4-2-1-1-1-2-1h4l1-1h8l1-1h3l-1 1Zm4 3-2 2-3-2 3-2 2 2Zm17 2-3 1-1-2 2-1 2 2Zm-2-3-5 2 4 4a90 90 0 0 0-1-1h-5l-1-1h-9l5-3-3-2-1-1-1-1h3l1 1h9v1h4v1Zm-48-8c1 2 4 4 7 4l4-1 2-3v-7l1 1c1 2 2 4 5 6a6 6 0 0 0 4 0c6-1 7-7 8-9 0 2 1 8 7 9h1a6 6 0 0 0 3 0c3-2 4-4 5-6l1-1v7l3 3 3 1c3 0 6-2 7-3a63 63 0 0 0-3 7v1h-1v-1h-2l-1-1a15 15 0 0 0-1 0h-1l-1-1h-2a17 17 0 0 0-1 0 22 22 0 0 0-1 0v-1h-5l-1-1h-21l-1 1h-1a106 106 0 0 0-2 0h-1l-1 1h-4a16 16 0 0 0-1 1h-2v1h-2l-1 1h-1a60 60 0 0 0-3-9Zm-1-2a1 1 0 0 1 0-1v-1l1-1h3l-2 3a2 2 0 0 1-1 0h-1Zm-2-6-1-1h-1v-1 1l-1-6c1-5 4-9 11-11l2 4v1l3 7-1 4-3 3v1h1l3 2h1l1-1-1 5a5 5 0 0 1-1 1c-4 2-7 1-8-1h-1l1-1 2-4 1-1h-6l-2-2Zm0 4h-1v-3l1 1v1h1a3 3 0 0 0-1 1Zm15-4v1l-1 1h-1l-2-1 2-2h1l1 1Zm-1-2 1-3 1 2v2a3 3 0 0 0-2-1Zm2-19a39 39 0 0 1 2 4h1v1c3 5 4 9 5 14l-1-1-5-1-3-3h-1a64 64 0 0 0-2-6v-1l-1-1a59 59 0 0 0-2-4l7-2Zm3 21h-1a2 2 0 0 1-1 0l1-2a3 3 0 0 1 1 0h3l-3 2Zm1 2 4-4 1 8v1c-3 0-5-3-6-5h1Zm4-19a63 63 0 0 1 3 0v1l1 2 1 9-3 2v2l5 2h1c-1 2-2 5-6 6v-9c-1-4-2-9-5-14a66 66 0 0 1 3-1Zm0-5h1l1 1v1l1 1h-2l-1 1v-4Zm3 0h1c1 2 3 3 6 3 2 0 4-1 5-3h1v1l-1 1v2l-1 1v2a246 246 0 0 0-2 9l-2-3v-1l-1 1-2 3a230 230 0 0 0-2-9v-3l-1-1v-2a8 8 0 0 0-1-1Zm7-5c2 0 4 2 4 3v1a3 3 0 0 1-1 2l-3 1c-2 0-3-1-3-2a3 3 0 0 1-1 0 2 2 0 0 1 0-1v-1c0-1 1-3 4-3Zm-6-5v-6l6 3-6 3Zm8-9-2 6-3-6h5Zm0 12h-5l3-6 2 6Zm4-9v6l-6-3 6-3Zm-4 35h1l2 1-2 1-2-1 1-1Zm-4 1-1 1-3-1 3-1 1 1Zm0-3 2-2 1 2a5 5 0 0 0-1 1v1a3 3 0 0 0-1-1 5 5 0 0 0-1-1Zm12-12 2 1c-2 5-4 10-4 14l-1 8v1c-3-1-5-4-5-6h1l4-2v-2l-3-2 2-10v-2h4Zm-3-2v-1a5 5 0 0 1 0-1h1l1-1v4-1a29 29 0 0 0-2 0 6 6 0 0 0-1 0h1Zm7 21c-1 2-3 5-6 5v-1l1-8h1l3 4h1Zm0-2-2-2h3l1 2h-1a3 3 0 0 1-1 0Zm0-16v-1h1l2-4 7 2a61 61 0 0 0-2 4v1l-1 1a65 65 0 0 0-2 6l-4 3-5 1-1 1c1-5 2-9 5-14Zm5 15a1 1 0 0 1 1 0l2 2-2 1h-1a2 2 0 0 1 0-1 1 1 0 0 1-1-1l1-1Zm0-1a3 3 0 0 0-1 1l-1-2 2-2v3Zm17-5v6-1l-1 1h-1v1l-3 2h-6l1 1c0 1 1 4 3 4v1c-2 2-5 3-9 1a5 5 0 0 1-1-1l-1-5 1 1h1l4-2v-1l-3-3-1-4a69 69 0 0 1 3-7l1-1a64 64 0 0 1 2-4c6 2 9 6 10 11Zm-2 9a5 5 0 0 1 0 1v1a3 3 0 0 1-1 0 3 3 0 0 0 0-1l1-1v-1 1Zm-2 4a1 1 0 0 1-1 0h-2l-1-3h3v1l1 1v1Zm28 5c-4-4-8-9-7-24v-1a162 162 0 0 0 0-41l4-1 7-1c3-2 4-5 5-7l4-7h1v-1h2l1-1 1 1a4 4 0 0 0-1 1h-1l-1 6 1 11 1 8v3l1 19c-1 11 0 14 2 20l2 9c1 4-1 6-3 10l-7 12-1 2-1 2c-2 6-4 8-7 10v-1a21 21 0 0 0 3-16 20 20 0 0 0 0-1l-1-2-5-10Zm20-81c1 2 11 15 19 16 4 1 8-1 12-4 4-2 9-5 14-5l2 1c8 1 12 5 15 8l-10-3-5 2-3 3c-3 3-5 6-13 7h-5l5 1 2 1c6 1 14 3 17 8 2 2 2 5 2 8-1-3-5-5-11-5l-10 1-10 1c-8 0-11-2-14-5h-1l-5-6a116 116 0 0 0-2-3 378 378 0 0 0-3-21c0-3 1-5 3-5h1Zm-191 79-18-1a217 217 0 0 0 4-32 220 220 0 0 1 28 0l1 13 3 19-18 1Zm-243-64 4 1 3 3c2 3 4 5 9 7-6 1-13 3-16 8-3 4-3 8-2 14l2 4v-5c1-4 3-7 10-7l10 1 11 1c8 0 11-3 15-6l6-6 1-1-1 17c1 11 0 14-2 19l-2 9c-2 5 1 8 3 12l7 11 2 6h1c2 6 5 8 8 10 6 4 12 6 19 6 8 0 15-2 22-4l14-3h6c13 0 28 3 37 6l11 2h3l5-1 10-3h6c5-1 10-1 13-7 3-4 7-13 10-29a220 220 0 0 0 36 0c3 16 7 25 9 29 4 6 8 6 13 7h7l10 3 8 1 10-2a168 168 0 0 1 43-6l15 3c7 2 14 4 21 4 8 0 14-2 19-6 4-2 6-4 9-10l3-6 6-11c3-4 5-7 4-12l-3-9c-1-5-3-8-2-19v-17l1 1 5 6h1c3 3 7 6 15 6l10-1 10-1c8 0 10 3 11 7v5l1-4c2-6 1-10-1-14-4-5-10-7-16-8 5-2 7-4 9-7l3-3 4-1c5 0 12 4 12 4l2 1-1-3s-5-9-17-11a16 16 0 0 0-3 0c-6 0-10 2-15 5-4 2-8 4-11 4-7-1-17-15-18-16 0-1-1-3-4-3l-5 1-5 8c-1 3-2 5-4 6l-6 1-5 2-1 4c2 7 1 16 0 38v1c-1 16 3 21 7 25a28 28 0 0 1 6 12l-4 1h-3l-11-4c-5-1-10-4-17-5a60 60 0 0 1 3-8l2-2 1-2 1-1c1-3 3-6 2-11-2-7-7-11-21-15l-1 1a40 40 0 0 0-3 4h-2l-1-6a2 2 0 0 0-1 0 13 13 0 0 0-4 1v-1l-2-4h2l-2-4 4 2v-10l-4 2 2-5h-11l2 5-4-2v10l4-2-2 4h3l-3 4h-4c-2 1-2 4-2 6h-2a40 40 0 0 0-3-4v-1h-1c-14 4-19 8-21 15l2 11 1 1 2 2 1 2 2 4a60 60 0 0 1 2 6l-6 2a41 41 0 0 1-25 3l-4-18c10-3 17-8 17-12v-3a133 133 0 0 1 14-44c2-1 4-2 5-5l1-4a11 11 0 0 0 2-4c3-5 6-10 7-16V85c-4-18-17-28-50-36h-1a98 98 0 0 0-8 12l-8-1c1-9 2-12-2-14h-2l-6 1h-4a8 8 0 0 0 1-1c0-6-6-11-13-11s-13 5-13 11v1l-2-1-6-1-3 1h-1c-4 3-2 10-1 14l-8 1-8-12h-1c-34 8-47 18-50 36v12h-1 1c1 6 3 11 6 16l1 1a11 11 0 0 0 2 3l1 4c1 3 2 4 4 5a149 149 0 0 1 15 44v3c0 4 6 9 17 12l-4 18-8 1c-6 0-11-1-17-4l-7-2a59 59 0 0 1 5-10l1-2 2-2v-1c2-3 3-6 2-11-1-7-7-11-21-15v1a40 40 0 0 0-4 4 66 66 0 0 0-2 0c1-3 1-5-1-6a2 2 0 0 0-1 0h-3v1-1l-3-4h2l-2-4 4 2v-10l-4 2 2-5h-10l2 5-5-2v10l5-2-2 4h2l-3 4h-4c-2 1-2 4-1 6a61 61 0 0 0-3 0 40 40 0 0 0-3-4v-1c-14 4-20 8-21 15-1 5 0 8 2 11v1l2 2 1 2a61 61 0 0 1 4 8c-7 1-13 4-17 5l-12 4a20 20 0 0 1-2 0l-5-1 1-2c1-5 3-7 5-10 4-4 8-9 7-25v-43l-6-2-6-1c-2-1-3-3-4-6s-2-6-5-8l-4-1c-3 0-4 2-4 3-1 1-11 15-18 16-4 0-8-2-12-4-4-3-9-5-14-5h-3c-13 2-17 11-17 11l-2 3 3-1s6-4 12-4Zm378 135-2 6s1-3 4-5l4-4-6 3Z"/>
  <path d="m436 145 5 6-7 4-6-7 8-3Zm-2 12 10-5-7-10-12 5 9 10Zm-23-15 8 1 1 4-2 3h-8l-2-4 3-4Zm8 10 3-5-2-6-10-1-4 5 3 6 10 1ZM377 26V9l14 6-7-13h17l-6 13 13-6v17l-13-6 6 13h-17l7-13-14 6Zm4 9h23l-5-12 11 6V6l-11 5 5-11h-23l6 11-12-5v23l12-6-6 12Zm12 105 7 5-7 6-8-6 8-5Zm10 5-10-7-11 7 11 8 10-8Zm-36-2 8-1 2 4-1 4h-8l-3-3 2-4Zm10 8 2-6-3-5-10 1-3 6 4 5 10-1Zm-33 1 5-7 8 3-6 7-7-3Zm16-5-11-5-8 10 11 5 8-10ZM260 266l-3-6c-1-2-5-3-5-3l4 4c3 2 4 5 4 5Zm216 319c-4 11-10 22-17 31a119 119 0 0 1-5 6l-3 3a104 104 0 0 1-7 7 98 98 0 0 1-4 4 76 76 0 0 1-50 17 70 70 0 0 1-4-1 71 71 0 0 1-17-3c-16-6-30-17-42-33l-1-1-2-3c-16-23-25-52-25-81a145 145 0 0 1 1-19c3-23 12-46 25-64l1-1 1-1a128 128 0 0 1 13-15 92 92 0 0 1 13-10 72 72 0 0 1 80 0l1 1 9 7a98 98 0 0 1 2 2c4 4 9 8 12 13a129 129 0 0 1 2 2l1 1v1c14 18 22 41 25 64l1 3a145 145 0 0 1-10 70Zm13-54-1-15v-2c-3-23-11-45-23-64l-2-1v-1a141 141 0 0 0-2-3 125 125 0 0 0-2-3 118 118 0 0 0-4-4 110 110 0 0 0-5-5 105 105 0 0 0-3-4l-12-9-2-1c-12-8-26-12-40-12s-28 4-41 12l-1 1-12 9a101 101 0 0 0-4 4 110 110 0 0 0-4 5 119 119 0 0 0-6 7l-2 3-1 1-1 1c-12 19-20 41-23 64v2a146 146 0 0 0 24 97l1 1a155 155 0 0 0 1 1l1 2a97 97 0 0 0 44 34 74 74 0 0 0 16 3 72 72 0 0 0 8 1c18 0 36-8 52-21a100 100 0 0 0 3-3 110 110 0 0 0 7-7l2-3a123 123 0 0 0 4-4c7-10 13-21 17-32l1-2c6-17 10-34 10-52ZM316 643a3 3 0 0 0-3 4 3 3 0 0 0 3 3 3 3 0 0 0 4-3 3 3 0 0 0-4-4Zm153 0a3 3 0 0 0-3 4 3 3 0 0 0 3 3 3 3 0 0 0 0-7Zm-180-24v-1a38 38 0 0 1-1-2 10 10 0 0 1-1-2v-2a4 4 0 0 1 0-1l2-2 3-1 2 1a6 6 0 0 1 1 1l1 2 1 1v1l-8 5Zm11-6a6 6 0 0 0-1 0 26 26 0 0 0 0-1v-1h-1a14 14 0 0 0-1-3l-3-2a6 6 0 0 0-3 0l-3 1-3 2-1 3a8 8 0 0 0 1 3l1 2 1 3a16 16 0 0 0 2 2l19-10-1-3-7 4Zm-14-16v-2a4 4 0 0 1 0-2l2-1a12 12 0 0 1 2-1c4-2 6-1 7 2l1 2a4 4 0 0 1-1 1l-2 2-2 1a14 14 0 0 1-2 1c-2 0-4-1-5-3Zm2 5h5l1-1h1l2-1 2-2a6 6 0 0 0 1-3l-1-3c-1-2-2-4-4-4h-6l-3 2-2 2a6 6 0 0 0-1 3v1a9 9 0 0 0 1 2c1 2 2 4 4 4Zm0-17 3-1 2-2 1-2v-3a10 10 0 0 0-1-3l-2-2-1 1a6 6 0 0 1 2 6 4 4 0 0 1-1 2 6 6 0 0 1-2 1l-2 1c-4 1-6 0-7-3a7 7 0 0 1 0-2v-2h-2a8 8 0 0 0 0 2v3l3 4h7Zm-4-13 4-1 2-2a5 5 0 0 0 1-2v-3a10 10 0 0 0 0-3l-2-2-2 1a6 6 0 0 1 2 6 4 4 0 0 1-1 2 6 6 0 0 1-2 1h-2c-4 1-6 0-7-3a7 7 0 0 1 0-2 7 7 0 0 1 0-2h-2a8 8 0 0 0 0 2v3c0 2 1 3 3 4s4 2 6 1Zm6-18-11-6-2-1h2l9-1v-3l-16 2v2l11 6 2 1h-2l-9 1v3l16-2v-2Zm-2-16-10-7-2-1h2l9-1v-2h-16v2l2 1 1 1 7 5 2 1h-11v3l16-1v-1Zm-19-7a5 5 0 0 0-1-1l-3-1v2l2 1 1 1v1l-1 1-2 1 1 3 2-1a4 4 0 0 0 1-1v-2a7 7 0 0 0 1-2 6 6 0 0 0-1-2Zm4-10 6 2h4l2-1a5 5 0 0 0 2-2l1-3v-3l-1-2h-2a6 6 0 0 1 1 4l-1 2a4 4 0 0 1-1 1 6 6 0 0 1-2 1h-3c-4 0-6-2-5-5a7 7 0 0 1 0-2l1-1-1-1h-1a8 8 0 0 0-1 2l-1 2 2 6Zm8-14 8 2v-3l-6-1h-1v-1l3-2 2-1 3-1 1-3v-1l-8 4-2 2-1-2-5-5v-1 1l-1 2 6 6v2l-7-2v3l6 1h2Zm3-25 10 3v-3l-8-2h-2l-5-2-1 2 3 3 2 2 3 4 2 2-2-1-6-1-3-1h-1v2l2 1 13 3 1-1-8-9v-1l-1-1h1Zm6-8v-1h-2l-7-2-1 2 6 2 3 1 6 2 1-1-4-7-2-3h-1l-1-2 2 1 3 1 6 1v-2l-5-2h-2l-1-1-5-1-1-1h-1v2l1 1 4 6 2 2 1 2h-2Zm-13-4a4 4 0 0 0 2-1 5 5 0 0 0 1-1 7 7 0 0 0 0-2v-3l-2-3-1 2 2 2v2a3 3 0 0 1-1 1h-3v3a4 4 0 0 0 2 0Zm14-19 2-4h1l6 3 2 1 3 2 1-2-3-2h-1l-2-2h-1l-5-3 3-4-1-1h-1l-2 3-4 8 1 1h1Zm10-19 3-1 3 1-4 5v2l-2-2v-5Zm-3 5 2 3a14 14 0 0 0 6 3 8 8 0 0 0 2 1 6 6 0 0 0 3-1 7 7 0 0 0 1-1 9 9 0 0 0 1-1 11 11 0 0 0 2-3v-3h-2v2a7 7 0 0 1-1 2l-2 1v1h-2a4 4 0 0 1-1 0 5 5 0 0 1-1 0l-2-1 1-2 5-7a15 15 0 0 0-2-1l-3-2h-2a5 5 0 0 0-2 2 10 10 0 0 0-1 1c-2 2-2 4-2 6Zm19-3 2-2-2-6-1-1h8l2-2-7-1h-3v-2l-2-5v-2l-1 1-1 1v2l1 4 1 2-2-1h-5l-2 2 9 1 3 9Zm5-19 6 6 2-2-5-4v-1l1-1 4-4 2 3 2 1 1 1 2-2-2-1-10-10-1 2 4 5-5 4v1-1l-4-4-2 2 3 3 2 2Zm16-20 2-1a4 4 0 0 1 2 1l1 1 2 2c2 4 1 6-1 8h-2a4 4 0 0 1-2 0l-2-2a11 11 0 0 1-1-2c-2-3-2-6 1-7Zm-1 12 2 1a6 6 0 0 0 3 1l3-1a8 8 0 0 0 2-2l1-3c1-1 0-4-1-6l-2-3-2-1a6 6 0 0 0-3-1l-3 1-4 4c0 2 0 4 2 7l2 3Zm16-8-1 2-1 1v2h1a7 7 0 0 0 1 0 2 2 0 0 0 1-1v-1a6 6 0 0 0 1-2v-2a31 31 0 0 0-1-3 47 47 0 0 0 0-3l-1-3 4-1 4 10v2l1 1 2-1v-2l-1-1-4-12-9 3a100 100 0 0 1 3 11Zm18-15h2l2 1 1 1v1l1 2c0 4-1 6-3 7l-2-1a4 4 0 0 1-2-1 6 6 0 0 1-1-1v-1a11 11 0 0 1-1-2c-1-4 0-6 3-7Zm-4 10a8 8 0 0 0 1 3 6 6 0 0 0 3 1h3l5-4v-7a13 13 0 0 0-1-2l-2-3a6 6 0 0 0-2-1h-3c-3 1-4 2-5 4v6l1 3Zm16-12 1 13h3l-2-13 7-1v-2h-9v3Zm21 4 1-1 1-1v2l-1 10h2l1-8v-2l1-6h-2l-2 2-1 2-5 5-1 1v-1l1-10h-3l-1 15 1 1 8-9Zm9 4 1 2h2a12 12 0 0 0 1 1h3v2l-1 1v3l2 1 1-2v-2l3-12h-2l-2 7h-1l-3-1h-1a2 2 0 0 1-1-1 3 3 0 0 1 0-1l1-2 1-4-3-1-1 5v3a5 5 0 0 0 0 1Zm20 0h3l2 2v4l-8-3 3-3Zm-6 10a6 6 0 0 0 1 2l3 2 3 1a8 8 0 0 0 2 0v-3l-2 1a7 7 0 0 1-2-1l-2-1-1-2v-2l1-2 9 4a16 16 0 0 0 1-3l1-3-1-2a5 5 0 0 0-1-2 10 10 0 0 0-2-1h-6l-4 5-1 4a7 7 0 0 0 0 2l1 1Zm13 6a5 5 0 0 0 1 2l2 3a10 10 0 0 0 5 1v-2a6 6 0 0 1-5-2 4 4 0 0 1 0-2 6 6 0 0 1 0-3l1-2c3-3 5-4 8-2a7 7 0 0 1 2 3l2-2a8 8 0 0 0-1-1l-2-2c-2-1-4-2-6-1-2 0-3 2-5 4l-2 3v3Zm11 7-1 2 2 2 2-3 1-2 1-1 1 1v9l2 2 1-8v-1l-1-1v-1h2l8-1-2-2-8 2-2-1 5-5-2-2-7 8-2 2Zm9 12 1 1 5-1h7l3-1-2 1-7 7 2 2 12-11-1-1-12 1h-3 1l1-1 7-6-1-1v-1h-1l-1 1-2 2-9 8Zm30 7 3 3 3-1-1-2-2 1a3 3 0 0 1-1-2l-1-1 1-2-2-2-1 2a4 4 0 0 0 0 1 5 5 0 0 0 0 2 7 7 0 0 0 1 1Zm-18 6 7 1h8l-2 1-5 3-2 1-1 1 1 2 2-1 1-1 5-3 2-1 2-2 2-1h-1v-1h-6l-6-1-2 1-1-1 2-1 8-5-1-2-14 9 1 1Zm23 15-1 1-2 1-1 2-2 1-3 4-4 1-1-2a2 2 0 0 1-1 0h-2l1 2a3 3 0 0 0 1 1l2 1h3l4-1h6l5-1h2l2-1-2-2h-1l-2 1h-5l-1 1h-3l-1 1v-1l1-1 1-1 1-1 2-2 2-2 1-1 2-2-2-2-1 1-1 2Zm1 16-2 1-4 1 1 3 4-2 2-1h1v2l2 5h-1l-6 2 1 3 6-2 2-1 7-3-1-2-6 2-2-7 4-1 2-1-1-2h-1l-1 1-7 2Zm7 16-8 2 1 1 10 5 3 1h-2l-10 2 1 3 14-3h2l-1-2-5-2-6-3-2-1h2l3-1h2l5-1-1-3-6 2h-2Zm3 20v4l-1 2-1 1-2-1-1-3a28 28 0 0 1 0-2v-1h5Zm6-1 1 2v1l-1 3-1 1a2 2 0 0 1-1 0 3 3 0 0 1-1-1 4 4 0 0 1-1-1 3 3 0 0 1 0-1v-3l4-1Zm-12-1h-2a113 113 0 0 0 0 5l2 5c1 1 2 2 4 1h2l1-3 2 2h4l1-1 1-5a44 44 0 0 0 0-3 111 111 0 0 1-1-2l-13 1h-1Zm12 24-3 1v-8l3 1 1 4-1 2Zm-5-10-3 1-3 1a6 6 0 0 0-2 2v1a8 8 0 0 0 0 2v4l1 2 2-1-1-2a7 7 0 0 1 0-2v-2l1-2 2-1h3v10a16 16 0 0 0 3 0h3l1-1a5 5 0 0 0 1-2v-3c0-2 0-4-2-5l-6-2Zm6 26a3 3 0 0 1-2 1l-1 1h-3l-5-1-1-4v-2a4 4 0 0 1 1-1h8l2 1 1 3v2Zm0-6 2-1v-1l-22-1v3h6a7 7 0 0 0 0 1v5l2 3 2 1 4 1 6-2c2-1 2-2 2-4v-3a5 5 0 0 0-2-2Zm-6 14h-4l-3 1a5 5 0 0 0-2 2v8l2-1a6 6 0 0 1 0-3v-3a4 4 0 0 1 2-1 6 6 0 0 1 2 0h2c4 0 6 2 6 5a7 7 0 0 1-1 2 7 7 0 0 1 0 1l2 1a8 8 0 0 0 1-2v-2l-1-6-6-2Zm-10 15 7 9 2 2-2-1-9-2-1 3 9 2 4 1h3v-1l-1-1-7-8-1-2h1l10 3 1-3-16-4v2Zm8 22-13-5-1 2 13 5-2 5 2 1 4-12-2-1-1 5Zm-6 15-3 2-3-1 4-7 2 3v3Zm-3-9-3-1h-3a6 6 0 0 0-3 1l-1 3-1 3v2h2v-2a7 7 0 0 1 0-2l2-2a4 4 0 0 1 1-1h2l3 1-5 10 2 1 3 1 3-1a5 5 0 0 0 1-1 10 10 0 0 0 2-2v-5c-1-2-2-4-5-5Zm-2 16-1 2-1 2v1l-1-1-2-1-9-6-1 2 7 5 2 1 2 2-1 2-1 2 2 1 1-2 1-2 3-5 1-1v-1l-2-1Zm-136 53-2 3-4 6-1 3-1-3-2-3-1-2-4-7h-2v24h2v-20l1 3 1 1 1 2 5 8h1l6-11 1-2v-1 20h3v-24h-3l-1 3Zm13 13-1 3v-19h-3v24h2l11-16 2-3v19h2v-24h-1l-12 16Zm30-6-1 1a6 6 0 0 1-2 1 12 12 0 0 1-2 0h-3v-10h1a41 41 0 0 1 2 0h2l2 1a4 4 0 0 1 2 4l-1 3Zm1-9a8 8 0 0 0-3-1 17 17 0 0 0-3 0 43 43 0 0 0-6 0v24h3v-9h3l3-1a8 8 0 0 0 3-1l2-2 1-4-1-4-2-2Zm19 1a8 8 0 0 0-4-2h-7l-2 1v2l2-1h3a9 9 0 0 1 3 1 6 6 0 0 1 2 1l2 3 1 3h-10v3h10l-1 4-2 3a6 6 0 0 1-2 1 9 9 0 0 1-3 0h-5v2l2 1h3l4-1a9 9 0 0 0 3-2l3-4 1-5-1-6-2-4Zm18 13h-7l2-7 1-4 1 3 3 8Zm-4-15-9 24h3l2-7h9l2 7h3l-9-24h-1Z"/>
  <path d="M344 498h2l2 1 2 1h1l4-2 1-2 1-1h1l1-1h1l2 1 2 1h2l1-1h1l3-1 1-2 1-1h1l3 1a10 10 0 0 0 3 0h3-3a9 9 0 0 1-3-1c-1-1-2-2-4-1h-1a4 4 0 0 0-1 1l-1 1-2 1-1 1h-3l-1-1-3-1h-2l-1 1-1 1-1 1-2 2-2 1-4-2c-3-1-5 1-6 2l-3 3-2 1a13 13 0 0 1-1-1h-3a9 9 0 0 0-2 0h-1 3l3 1h4l3-3 2-1Zm-23-20 2 3 1 1h2l2-1 5-2h3l2 2 2 3 2 1h1l1 1h2l2-1 3-2 2-1h2l1 1 3 2 3 1h1l1 1h1l1-1 3-1a6 6 0 0 1 2-2h2l4 2 3 3 3 1-1-1-2-1-3-3-4-2h-3l-2 1-3 2h-2v-1h-2l-1-1-3-2a7 7 0 0 0-2-1h-2l-3 1-3 2-2 1-1-1c-2 0-3-1-4-3l-3-2h-4l-5 2-3 1a2 2 0 0 1-1-1h-1l-2-2-2-1-1-1 1 1 2 1Zm15-21 1 3c1 1 2 3 4 3l5-1 2 1 1 3 1 3a6 6 0 0 0 2 1v1h1l4-1 2-1h3l1 2 1 3 2 3h6l5 1 1 1 1 2 2 2 3 2-3-2-1-2a23 23 0 0 1-1-2 6 6 0 0 0-1-1l-1-1-5-2-3 1-2-1-1-2-1-3-2-3h-4l-3 1-2 1-4-4-1-3-1-1h-2l-5 1-3-2-2-3-2-2v1l2 1Zm9-21 1 3 4 3 4 2 2 2 1 3v3l1 2v1h1c1 2 2 2 3 2l4 1h2l1 1v2l2 6 1 1 1 2h7v1h1l1 4 1 3 1 2 1 1v-1l-1-2-1-3-1-5h-1v-1l-1-1h-6l-1-1v-1l-2-6v-2l-2-1v-1h-1l-2-1h-3l-2-1-1-1-1-1v-3l-1-3-3-3-4-2-4-2-1-3a9 9 0 0 0-1-2l-1-1 1 1v2Zm25 0v1l2 2 3 3v4l-1 1a7 7 0 0 0 0 1v1h1v1l2 1 2 2h1l1 1v2h1v10h1v1l3 2h1l1 1v4l-1 3 1 2h1-1l-1-2 1-2c1-1 2-3 1-4v-3l-3-1-1-1-1-1v-10h-1v-2l-5-3-1-1s0-1 0 0l-1-1v-1l1-1v-4l-1-1c0-2-2-3-3-3-2-1-2-2-2-3v-4a40 40 0 0 0-1-1l1 1-1 2v3Zm20 9 2 3 2 3-1 2-2 3c-1 3 0 5 2 7l1 3v1l1 1v2l-1 2-1 2a6 6 0 0 0 0 2v3-3a6 6 0 0 1 1-2l1-1 1-2v-5l-1-1-1-3c-1-1-2-3-1-5l2-2 1-4-2-4-2-3-1-3a4 4 0 0 1 0-1v-2l2-2 2-1v-2l-1-4-2-3c-1-1-2-3-1-5l1-4 1-1 1-2-1-2a7 7 0 0 0-1-1l1 1v2l-1 3c-1 1-3 2-3 5l2 5 1 3 1 1v3l-1 1-2 1-1 2v2a7 7 0 0 0 0 2l1 3Zm7 34v-2c1-1 1-2 3-2l1-1 2-2v-5l-1-2v-2l4-4 2-3v-9l1-2 2-1 1-2h1v-4l-1-5 2-3h2v-1l1-1v-2a10 10 0 0 1-1 2l-2 2c-2 0-3 2-3 3v8l-1 1-2 2c-1 1-2 1-2 3v6l-1 5-4 4-1 3 1 3 1 4-3 2-2 2v3Zm14-15-1 1v2l-1 3v5h-1l-4 1-2 1-1 1-2 3 2-3 3-1h3l2-1 1-1 1-2v-3c0-2 0-4 2-5l6-2 3-3v-1l1-1v-2l1-6c1-2 3-2 5-2l4-2v-1h1a7 7 0 0 0 0-2v-6l1-2h1a5 5 0 0 1 0-1h5v-1a1 1 0 0 1 1 0h1-2l-1 1-4-1-1 1a5 5 0 0 0-1 1l-1 2-1 6v2h-1l-2 1-3 1h-2l-1 1-1 1-1 7-1 2v1l-2 2-6 3h-1Zm29-4-3 4-1 1-1 1-2-1h-3l-2 1a10 10 0 0 0-1 1v1l-1 2-2 2-2 1h-3l-1 1h-2a6 6 0 0 0-1 3l-1 2v1l-1 1h-4a6 6 0 0 0-3 0l-3 2 3-1a6 6 0 0 1 3 0h4l1-1 1-1 1-2a4 4 0 0 1 2-2l1-1h3l3-1 3-2 1-4 1-1h2l2 1h2l1-1 2-1 2-5 3-3h4l3-1 3-1h-3l-3 1h-4c-2 0-3 2-4 3Zm12 19-2 1h-1l-3-1-4-1h-1l-2 1-3 2-3 2v1h-2l-3-2h-2l-1-1h-1l-6 4c-1 2-2 3-4 3h-2l-2-1-3-1-4 1h4l3 1 2 1h3l2-1 3-2 4-3h1l1 1h1l3 2h4l1-1 2-2 3-2 1-1h2l2 1 4 1a14 14 0 0 0 2 0l1-1 2-1 1-1 3-4h3l2 1 3 1 3-1h1-4l-3-1-2-1a6 6 0 0 0-2-1 5 5 0 0 0-1 1l-2 1-2 2-1 1-1 1Zm15 23-2-2-2-1c-2-1-4-2-6-1l-3 1-3 1-6-4h-1l-1-1h-5l-4 2-1 1s-1 0 0 0a5 5 0 0 0-1 0l-5-4-2-1h-1v-1h-1l-3 1-5 2c-2 1-3 0-4-1a27 27 0 0 0-3-2l-3-2 3 2a27 27 0 0 1 2 3l5 2 3-1 2-2h4v1h2l2 2 3 3 5-1 2-2c2-1 4 0 6 1l3 2 4 2 3-1 3-2a3 3 0 0 1 1 0h2l2 1 2 1 2 1 2 1h2a8 8 0 0 0 3-1h-6Zm-37 9 4 3 4-1h3l2 1a50 50 0 0 0 1 2l-1-2-2-2-3-1-3 1c-2 0-3-1-3-2l-1-2-1-1h-1l-3-2h-3l-2 1-1-1-3-3-1-1h-4l-3-1h-1a8 8 0 0 0 0-1l-1-1-2-2a3 3 0 0 0-2 0l2 1 1 2 1 1v1h1l4 1h2l1 1 4 4h1v1h1l3-1 4 1 2 3Zm-88 4h3l4 1c2-1 4-1 5-3l2-4 4-1h5l1-1 3-4h1v-1h2l5-1 1-1v-1l1-1 1-2 2-1a3 3 0 0 0-2 0l-2 3-1 1-1 1h-6l-1 1-1 1c-2 1-2 3-4 3l-1 1h-6l-2 2h-1l-1 2-1 2-3 2-4-1-3 2-2 2a480 480 0 0 0-1 2l1-2 2-2Zm86 16v-2l-2-3-2-3-3-1-2-1-2-2-1-1v-3l-2-5-5-2h-2a8 8 0 0 1-2-1l-2-2-1-3v-3l-1-2v5l1 3 2 4a10 10 0 0 0 2 1h3l3 2 2 3v4l1 1c0 2 2 3 4 3l3 1 3 3 2 2a410 410 0 0 0 1 2Zm-46-29 2-2 2-2 1-1-2 1-2 1-2 3-2 3v5l-1 3v1h-1l-2 1-4 4v5l1 2v2l-2 3-2 2-2 2-2 1 2-1 2-1 3-2 2-4a10 10 0 0 0 1-2l-1-2v-4l3-3 2-1h1l1-1 1-5v-4l1-4Z"/>
  <path d="m410 590-3-3 2-2 1 5Zm-32-5 5 4-7 5 2-9Zm6-33 8 7-11 10 3-17Zm9-17 9 13h-17l8-13Zm-4-8 3 6-7 11 4-17Zm4-24 4 21h-8l4-21Zm0 28-3-5h7l-4 5Zm8 12-6-10 3-5 3 15Zm4 20-3 2-7-6 8-7 2 11Zm55-31 2-1 5 5-2 2-5-6Zm-10 9 1-2 5 6-2 1-4-5Zm-11 5-30 22-4 3-1 1-3-4h1l1-1 2-2 3-2 28-21 3 4Zm-42 35 8-6 4-4 31-24 5 6-34 28-1 1-1 1-4 3-8-5Zm-2-2-6-4h13l-7 4Zm-2-21-7-8h15l-8 8Zm0 2 7 7-2 1 4 5h-16l-3-3 10-10Zm-67-26-4 6-2-1 4-6 2 1Zm-13 20 21-27 21 1-29 36-13-10Zm60 59-3 2-15 12-7-9 18-14 3-2 4-3 3-2 9-7 4 3 4 4h-1l-2 2-17 14Zm65 14-21-15-3-3-16-11-1-1v-1h-1l-1-1-3-2-3-2-4-3-7-5-2-2-38-28 6-8 34 25 3 2 1 1 3 2 9 6 1 1 8 6h1l1 1 6 4 1 1 2 1 31 22-7 10Zm12-68-33 27-4-4 34-27 3 4Zm7 5-9-11-11-13-1-1-2-3 3-7 10 11 7 9 12 14-9 1Zm2-19v-1l-17-21h10l5 8 8 10 7 10-2 7-11-13Zm10-9-7-7-3 1-6-9h-15l13 16-3 2-12-14-4 12 3 3-28 21-2-12-10-52a6 6 0 1 0-3 0l-14 70-33-23 14-18-26-1-5 7-5-2-6 9 4 2-11 14 16 12 11-13 39 29-3 13-9 7-3 2-16 13 10 12 14-12-2 11 3 1 2-14 22-17 1-1h1l19 14 3 18 3-1-3-14 17 13 2 1 1 1 1-2 2-2 7-9-31-22-2-2-2-1-1-9 5 6 34-28 5 5 14-1-14-17 2-2 12 16 4-11-8-11 3-4Z"/>
</svg>
